<!-- Generated by IcoMoon.io -->
<svg version="1.1" xmlns="http://www.w3.org/2000/svg" width="32" height="32" viewBox="0 0 32 32">
<title>ADA-alt</title>
<path fill="#000" d="M32 16c0 8.837-7.163 16-16 16s-16-7.163-16-16c0-8.837 7.163-16 16-16s16 7.163 16 16z"></path>
<path fill="#fff" d="M14.472 14.717c-0.001 0-0.002 0-0.004 0-0.502 0-0.936-0.287-1.149-0.706l-0.003-0.007c-0.32-0.639-0.064-1.42 0.573-1.742 0.169-0.087 0.369-0.138 0.58-0.139h0c0.492 0 0.934 0.273 1.156 0.713 0.321 0.639 0.064 1.42-0.573 1.741-0.169 0.088-0.369 0.139-0.581 0.14h-0zM12.954 17.368c-0.025 0-0.050-0.001-0.075-0.002-0.711-0.041-1.257-0.655-1.217-1.369 0.040-0.711 0.648-1.263 1.364-1.221 0.712 0.040 1.257 0.655 1.217 1.368-0.039 0.687-0.606 1.224-1.29 1.224zM14.481 20.010c-0.252 0-0.497-0.073-0.708-0.212-0.282-0.187-0.484-0.475-0.555-0.811l-0.001-0.008c-0.018-0.080-0.028-0.172-0.028-0.266 0-0.264 0.079-0.509 0.215-0.714l-0.003 0.005c0.234-0.355 0.631-0.586 1.082-0.586 0 0 0 0 0.001 0h-0c0.252 0 0.497 0.074 0.708 0.213 0.283 0.186 0.485 0.475 0.556 0.812l0.001 0.008c0.071 0.339 0.005 0.685-0.185 0.975-0.233 0.355-0.63 0.585-1.080 0.585-0.001 0-0.002 0-0.003 0h0zM17.53 20.004c-0.001 0-0.002 0-0.003 0-0.502 0-0.936-0.287-1.149-0.706l-0.003-0.007c-0.088-0.17-0.139-0.37-0.139-0.583 0-0.146 0.024-0.285 0.069-0.416l-0.003 0.009c0.11-0.331 0.341-0.596 0.639-0.748l0.007-0.003c0.169-0.088 0.369-0.139 0.581-0.139h0c0.492 0 0.935 0.273 1.155 0.714 0.32 0.638 0.064 1.419-0.573 1.741-0.169 0.087-0.369 0.138-0.581 0.139h-0zM19.049 17.354c-0.026 0-0.050-0.002-0.075-0.003-0.712-0.040-1.258-0.655-1.218-1.368 0.040-0.711 0.648-1.263 1.365-1.222 0.356 0.020 0.67 0.182 0.89 0.43l0.001 0.001c0.203 0.227 0.328 0.528 0.328 0.858 0 0.028-0.001 0.055-0.003 0.082l0-0.004c-0.038 0.686-0.605 1.224-1.289 1.224zM17.517 14.711c-0.251 0-0.496-0.073-0.708-0.213-0.597-0.392-0.763-1.197-0.372-1.796 0.234-0.354 0.63-0.585 1.081-0.585 0.264 0 0.509 0.079 0.714 0.215l-0.005-0.003c0.596 0.392 0.764 1.197 0.373 1.795-0.234 0.355-0.631 0.586-1.082 0.586-0 0-0 0-0 0v0zM13.177 9.898c0.161 0.319 0.032 0.71-0.286 0.87-0.085 0.044-0.185 0.069-0.291 0.069-0.251 0-0.468-0.143-0.575-0.352l-0.002-0.004c-0.044-0.085-0.069-0.185-0.069-0.292 0-0.251 0.143-0.469 0.352-0.577l0.004-0.002c0.085-0.043 0.184-0.069 0.29-0.069 0.251 0 0.468 0.143 0.575 0.352l0.002 0.004zM9.264 15.432c0.356 0.020 0.629 0.326 0.608 0.683-0.020 0.342-0.302 0.612-0.647 0.612-0.012 0-0.025-0-0.037-0.001l0.002 0c-0.356-0.021-0.628-0.327-0.608-0.684 0.020-0.341 0.301-0.611 0.646-0.611 0.012 0 0.025 0 0.037 0.001l-0.002-0zM12.087 21.598c0.117-0.177 0.315-0.293 0.54-0.293 0.132 0 0.254 0.040 0.357 0.108l-0.002-0.001c0.299 0.196 0.382 0.597 0.186 0.897-0.117 0.177-0.315 0.293-0.54 0.293-0.132 0-0.254-0.039-0.356-0.107l0.002 0.002c-0.177-0.118-0.291-0.317-0.291-0.542 0-0.132 0.040-0.255 0.107-0.358l-0.002 0.002zM18.823 22.23c-0.044-0.085-0.069-0.185-0.069-0.291 0-0.251 0.142-0.468 0.351-0.576l0.004-0.002c0.085-0.044 0.185-0.069 0.291-0.069 0.251 0 0.468 0.143 0.575 0.352l0.002 0.004c0.161 0.319 0.032 0.71-0.286 0.87-0.085 0.044-0.185 0.070-0.291 0.070-0.251 0-0.468-0.143-0.574-0.352l-0.002-0.004zM22.736 16.696c-0.357-0.020-0.628-0.326-0.608-0.683s0.325-0.631 0.681-0.61c0.356 0.020 0.629 0.326 0.609 0.684-0.020 0.341-0.301 0.611-0.646 0.611-0.013 0-0.026-0-0.038-0.001l0.002 0zM19.915 10.529c-0.117 0.177-0.315 0.293-0.54 0.293-0.132 0-0.254-0.040-0.356-0.107l0.002 0.002c-0.177-0.118-0.292-0.316-0.292-0.542 0-0.132 0.040-0.255 0.108-0.358l-0.002 0.002c0.117-0.177 0.315-0.293 0.54-0.293 0.132 0 0.254 0.040 0.356 0.107l-0.002-0.001c0.177 0.118 0.292 0.317 0.292 0.542 0 0.132-0.039 0.255-0.107 0.357l0.002-0.002zM11.764 7.91c0.028 0.055 0.045 0.12 0.045 0.189 0 0.163-0.092 0.303-0.227 0.373l-0.002 0.001c-0.055 0.028-0.12 0.045-0.188 0.045-0.162 0-0.303-0.093-0.372-0.228l-0.001-0.002c-0.028-0.055-0.045-0.12-0.045-0.189 0-0.162 0.092-0.303 0.227-0.373l0.002-0.001c0.055-0.028 0.119-0.045 0.188-0.045 0.162 0 0.303 0.093 0.372 0.228l0.001 0.002zM6.841 15.666c0.22 0.013 0.394 0.195 0.394 0.418 0 0.009-0 0.017-0.001 0.026l0-0.001c-0.013 0.231-0.211 0.409-0.441 0.394-0.22-0.013-0.394-0.194-0.394-0.417 0-0.009 0-0.017 0.001-0.026l-0 0.001c0.013-0.221 0.195-0.395 0.418-0.395 0.008 0 0.016 0 0.024 0.001l-0.001-0zM11.077 23.819c0.075-0.115 0.204-0.189 0.349-0.189 0.086 0 0.165 0.026 0.231 0.070l-0.002-0.001c0.114 0.076 0.188 0.205 0.188 0.35 0 0.086-0.026 0.165-0.070 0.232l0.001-0.002c-0.076 0.115-0.204 0.189-0.35 0.189-0.085 0-0.164-0.026-0.231-0.069l0.002 0.001c-0.114-0.076-0.189-0.205-0.189-0.351 0-0.086 0.026-0.165 0.069-0.232l-0.001 0.002zM20.236 24.218c-0.028-0.055-0.045-0.12-0.045-0.189 0-0.163 0.093-0.304 0.228-0.373l0.002-0.001c0.055-0.028 0.12-0.045 0.188-0.045 0.162 0 0.303 0.093 0.371 0.228l0.001 0.002c0.028 0.055 0.045 0.12 0.045 0.189 0 0.162-0.092 0.303-0.227 0.373l-0.002 0.001c-0.055 0.028-0.12 0.045-0.189 0.045-0.162 0-0.303-0.092-0.372-0.227l-0.001-0.002zM25.159 16.463c-0.221-0.013-0.395-0.196-0.395-0.419 0-0.009 0-0.017 0.001-0.025l-0 0.001c0.012-0.221 0.194-0.395 0.417-0.395 0.009 0 0.017 0 0.026 0.001l-0.001-0c0.22 0.013 0.393 0.194 0.393 0.416 0 0.009-0 0.018-0.001 0.027l0-0.001c-0.013 0.221-0.195 0.396-0.418 0.396-0.008 0-0.016-0-0.023-0.001l0.001 0zM20.924 8.309c-0.076 0.115-0.204 0.189-0.35 0.189-0.085 0-0.165-0.026-0.231-0.070l0.002 0.001c-0.114-0.076-0.189-0.205-0.189-0.351 0-0.085 0.026-0.165 0.069-0.231l-0.001 0.002c0.075-0.114 0.203-0.189 0.349-0.189 0.086 0 0.165 0.026 0.231 0.070l-0.002-0.001c0.114 0.076 0.189 0.205 0.189 0.351 0 0.085-0.025 0.165-0.069 0.231l0.001-0.002zM11.891 12.82c0.351 0.23 0.449 0.703 0.219 1.054-0.137 0.209-0.37 0.344-0.635 0.344-0.155 0-0.3-0.047-0.42-0.127l0.003 0.002c-0.351-0.23-0.449-0.702-0.219-1.055 0.23-0.351 0.701-0.45 1.052-0.219zM11.144 18.011c0.375-0.19 0.832-0.038 1.021 0.337s0.038 0.834-0.337 1.024c-0.374 0.189-0.832 0.038-1.021-0.337s-0.038-0.834 0.336-1.024zM15.198 21.255c0.024-0.42 0.383-0.741 0.802-0.718 0.42 0.024 0.74 0.385 0.716 0.804s-0.383 0.742-0.802 0.718c-0.419-0.024-0.739-0.384-0.716-0.804zM20.11 19.309c-0.208-0.139-0.343-0.373-0.343-0.638 0-0.155 0.046-0.3 0.126-0.42l-0.002 0.003c0.138-0.208 0.371-0.343 0.635-0.343 0.155 0 0.299 0.047 0.419 0.126l-0.003-0.002c0.351 0.23 0.449 0.703 0.219 1.054-0.137 0.209-0.37 0.345-0.635 0.345-0.155 0-0.299-0.046-0.419-0.126l0.003 0.002zM20.857 14.117c-0.375 0.189-0.832 0.038-1.020-0.337s-0.039-0.834 0.336-1.023c0.375-0.19 0.832-0.039 1.022 0.337 0.188 0.375 0.037 0.834-0.338 1.023zM16.749 10.873c-0.024 0.42-0.384 0.742-0.803 0.718-0.401-0.024-0.717-0.355-0.717-0.76 0-0.016 0-0.031 0.001-0.046l-0 0.002c0.024-0.42 0.383-0.742 0.801-0.718 0.402 0.024 0.718 0.356 0.718 0.761 0 0.015-0 0.030-0.001 0.045l0-0.002zM9.061 11.453c0.246 0.161 0.314 0.492 0.153 0.738-0.096 0.146-0.259 0.241-0.444 0.241-0.109 0-0.21-0.033-0.294-0.089l0.002 0.001c-0.146-0.097-0.24-0.26-0.24-0.446 0-0.109 0.033-0.21 0.088-0.295l-0.001 0.002c0.096-0.146 0.259-0.241 0.444-0.241 0.109 0 0.21 0.033 0.294 0.089l-0.002-0.001zM8.548 19.785c0.070-0.036 0.152-0.057 0.24-0.057 0.207 0 0.386 0.118 0.473 0.291l0.001 0.003c0.036 0.070 0.057 0.152 0.057 0.24 0 0.207-0.118 0.387-0.29 0.475l-0.003 0.001c-0.070 0.036-0.152 0.057-0.239 0.057-0.207 0-0.386-0.118-0.473-0.29l-0.001-0.003c-0.132-0.263-0.027-0.584 0.236-0.717zM15.433 24.396c0.016-0.281 0.247-0.503 0.531-0.503 0.011 0 0.021 0 0.032 0.001l-0.001-0c0.281 0.017 0.502 0.248 0.502 0.532 0 0.011-0 0.022-0.001 0.033l0-0.001c-0.015 0.281-0.247 0.503-0.531 0.503-0.011 0-0.021-0-0.032-0.001l0.001 0c-0.281-0.016-0.502-0.248-0.502-0.531 0-0.011 0-0.022 0.001-0.033l-0 0.002zM22.939 20.675c-0.145-0.097-0.24-0.261-0.24-0.446 0-0.109 0.032-0.21 0.088-0.294l-0.001 0.002c0.096-0.146 0.26-0.241 0.445-0.241 0.109 0 0.21 0.033 0.294 0.088l-0.002-0.001c0.145 0.097 0.24 0.261 0.24 0.446 0 0.109-0.032 0.21-0.088 0.294l0.001-0.002c-0.096 0.146-0.259 0.241-0.445 0.241-0.109 0-0.21-0.033-0.294-0.089l0.002 0.001zM23.452 12.344c-0.070 0.036-0.152 0.057-0.239 0.057-0.207 0-0.386-0.118-0.475-0.291l-0.001-0.003c-0.036-0.070-0.057-0.152-0.057-0.24 0-0.207 0.118-0.386 0.29-0.475l0.003-0.001c0.070-0.036 0.152-0.057 0.24-0.057 0.206 0 0.385 0.118 0.473 0.29l0.001 0.003c0.036 0.070 0.057 0.153 0.057 0.24 0 0.207-0.117 0.386-0.289 0.475l-0.003 0.001zM16.513 7.732c-0.016 0.281-0.248 0.503-0.532 0.503-0.011 0-0.021-0-0.032-0.001l0.001 0c-0.281-0.017-0.502-0.249-0.502-0.532 0-0.011 0-0.021 0.001-0.032l-0 0.001c0.016-0.281 0.248-0.503 0.531-0.503 0.011 0 0.021 0 0.031 0.001l-0.001-0c0.281 0.017 0.502 0.249 0.502 0.532 0 0.011-0 0.022-0.001 0.033l0-0.001z"></path>
</svg>
