<!-- Generated by IcoMoon.io -->
<svg version="1.1" xmlns="http://www.w3.org/2000/svg" width="32" height="32" viewBox="0 0 32 32">
<title>ADA</title>
<path fill="#fff" d="M13.562 13.795c-0.807 0-1.534-0.448-1.896-1.167-0.525-1.045-0.104-2.324 0.94-2.851 0.277-0.142 0.605-0.226 0.952-0.227h0c0.002 0 0.004 0 0.006 0 0.822 0 1.535 0.469 1.885 1.155l0.006 0.012c0.527 1.046 0.104 2.325-0.94 2.85-0.277 0.143-0.606 0.228-0.953 0.228h-0zM11.073 18.134c-0.042 0-0.082-0.001-0.123-0.003-1.166-0.068-2.063-1.073-1.996-2.241 0.066-1.164 1.063-2.068 2.239-1.999 1.167 0.065 2.063 1.071 1.997 2.239-0.064 1.124-0.995 2.003-2.116 2.003zM13.578 22.46c-0 0-0.001 0-0.001 0-0.432 0-0.834-0.13-1.168-0.352l0.008 0.005c-0.463-0.305-0.795-0.777-0.911-1.329l-0.002-0.014c-0.116-0.554-0.008-1.122 0.302-1.596 0.385-0.581 1.035-0.959 1.775-0.959 0 0 0.001 0 0.002 0h-0c0.413 0 0.816 0.121 1.162 0.348 0.464 0.305 0.796 0.777 0.912 1.329l0.002 0.014c0.117 0.554 0.008 1.121-0.303 1.596-0.383 0.58-1.033 0.958-1.771 0.958-0.002 0-0.004 0-0.006 0h0zM18.581 22.449c-0.002 0-0.004 0-0.005 0-0.822 0-1.535-0.47-1.884-1.155l-0.006-0.012c-0.255-0.506-0.298-1.081-0.12-1.62s0.555-0.975 1.060-1.23c0.277-0.143 0.606-0.228 0.954-0.228h0c0.002 0 0.004 0 0.007 0 0.822 0 1.535 0.47 1.883 1.156l0.006 0.012c0.526 1.045 0.104 2.323-0.94 2.85-0.278 0.143-0.606 0.226-0.954 0.227h-0zM21.074 18.113c-0.042 0-0.082-0.003-0.122-0.004-1.169-0.066-2.065-1.072-1.998-2.239 0.066-1.164 1.064-2.068 2.239-1.999 0.583 0.032 1.099 0.297 1.46 0.703l0.002 0.002c0.334 0.371 0.538 0.864 0.538 1.406 0 0.045-0.001 0.090-0.004 0.135l0-0.006c-0.063 1.124-0.993 2.003-2.115 2.003zM18.56 13.785c-0.412 0-0.814-0.12-1.161-0.348-0.979-0.642-1.252-1.96-0.61-2.939 0.384-0.581 1.035-0.958 1.773-0.958 0.001 0 0.002 0 0.002 0h-0c0.413 0 0.815 0.12 1.161 0.347 0.979 0.641 1.253 1.959 0.611 2.938-0.394 0.599-1.057 0.96-1.776 0.96zM11.438 5.906c0.264 0.523 0.053 1.162-0.469 1.424-0.139 0.072-0.303 0.114-0.477 0.114-0.411 0-0.767-0.234-0.943-0.576l-0.003-0.006c-0.072-0.139-0.114-0.304-0.114-0.478 0-0.412 0.234-0.768 0.577-0.944l0.006-0.003c0.522-0.262 1.16-0.053 1.423 0.47zM5.017 14.965c0.585 0.033 1.032 0.534 0.999 1.119s-0.535 1.032-1.119 1c-0.584-0.034-1.030-0.535-0.998-1.12 0.033-0.584 0.534-1.031 1.118-0.998zM9.649 25.059c0.192-0.29 0.517-0.479 0.886-0.479 0.216 0 0.417 0.065 0.585 0.176l-0.004-0.002c0.49 0.32 0.626 0.978 0.305 1.468s-0.978 0.626-1.467 0.306c-0.29-0.193-0.478-0.518-0.478-0.887 0-0.217 0.065-0.418 0.176-0.586l-0.002 0.004zM20.703 26.093c-0.264-0.522-0.053-1.159 0.468-1.423 0.525-0.264 1.161-0.053 1.424 0.468 0.264 0.523 0.053 1.162-0.47 1.424-0.139 0.072-0.303 0.114-0.477 0.114-0.411 0-0.767-0.235-0.942-0.577l-0.003-0.006zM27.123 17.034c-0.586-0.033-1.031-0.535-0.998-1.119 0.032-0.559 0.493-1.001 1.057-1.001 0.021 0 0.043 0.001 0.064 0.002l-0.003-0c0.584 0.032 1.032 0.533 0.999 1.119s-0.535 1.031-1.12 0.998zM22.493 6.94c-0.192 0.293-0.519 0.485-0.89 0.485-0.585 0-1.060-0.475-1.060-1.060 0-0.219 0.066-0.422 0.18-0.591l-0.002 0.004c0.192-0.29 0.517-0.479 0.886-0.479 0.216 0 0.417 0.065 0.585 0.176l-0.004-0.002c0.489 0.322 0.626 0.978 0.306 1.468zM9.12 2.653c0.046 0.090 0.073 0.196 0.073 0.309 0 0.266-0.152 0.497-0.373 0.611l-0.004 0.002c-0.090 0.046-0.196 0.073-0.309 0.073-0.266 0-0.497-0.152-0.611-0.374l-0.002-0.004c-0.046-0.090-0.073-0.196-0.073-0.309 0-0.266 0.152-0.497 0.373-0.611l0.004-0.002c0.090-0.046 0.196-0.073 0.308-0.073 0.266 0 0.497 0.151 0.611 0.373l0.002 0.004zM1.042 15.348c0.362 0.021 0.647 0.319 0.647 0.684 0 0.014-0 0.028-0.001 0.041l0-0.002c-0.022 0.378-0.346 0.669-0.723 0.645-0.361-0.020-0.647-0.318-0.647-0.683 0-0.014 0-0.028 0.001-0.042l-0 0.002c0.021-0.362 0.32-0.647 0.685-0.647 0.013 0 0.027 0 0.040 0.001l-0.002-0zM7.992 28.694c0.124-0.188 0.335-0.31 0.573-0.31 0.14 0 0.271 0.042 0.38 0.115l-0.002-0.002c0.187 0.124 0.309 0.335 0.309 0.573 0 0.14-0.042 0.271-0.115 0.38l0.002-0.002c-0.124 0.188-0.335 0.31-0.574 0.31-0.14 0-0.27-0.042-0.378-0.114l0.002 0.002c-0.188-0.125-0.31-0.335-0.31-0.575 0-0.14 0.042-0.271 0.114-0.379l-0.002 0.003zM23.021 29.347c-0.17-0.34-0.034-0.753 0.304-0.922 0.090-0.047 0.196-0.074 0.309-0.074 0.266 0 0.496 0.152 0.609 0.373l0.002 0.004c0.047 0.090 0.074 0.197 0.074 0.309 0 0.266-0.151 0.496-0.373 0.61l-0.004 0.002c-0.090 0.047-0.197 0.074-0.309 0.074-0.266 0-0.496-0.151-0.61-0.372l-0.002-0.004zM31.099 16.653c-0.362-0.021-0.648-0.32-0.648-0.686 0-0.014 0-0.027 0.001-0.041l-0 0.002c0.021-0.362 0.319-0.647 0.684-0.647 0.015 0 0.029 0 0.043 0.001l-0.002-0c0.377 0.020 0.667 0.346 0.643 0.724-0.020 0.377-0.345 0.667-0.722 0.647zM24.15 3.305c-0.209 0.317-0.634 0.406-0.95 0.198-0.188-0.125-0.31-0.335-0.31-0.574 0-0.14 0.042-0.27 0.114-0.379l-0.002 0.002c0.124-0.187 0.334-0.309 0.572-0.309 0.14 0 0.271 0.042 0.379 0.115l-0.002-0.002c0.188 0.124 0.31 0.335 0.31 0.574 0 0.14-0.042 0.269-0.113 0.378l0.002-0.002zM9.328 10.69c0.575 0.377 0.737 1.15 0.359 1.726-0.226 0.342-0.608 0.564-1.042 0.564-0.255 0-0.492-0.077-0.689-0.208l0.004 0.003c-0.576-0.377-0.737-1.15-0.359-1.727 0.378-0.575 1.151-0.737 1.727-0.358zM8.102 19.186c0.615-0.311 1.365-0.062 1.675 0.552s0.062 1.366-0.553 1.676c-0.614 0.31-1.365 0.062-1.674-0.552-0.31-0.615-0.063-1.366 0.552-1.676zM14.754 24.497c0.040-0.688 0.629-1.213 1.316-1.175 0.689 0.039 1.214 0.63 1.175 1.316-0.038 0.658-0.581 1.177-1.245 1.177-0.025 0-0.050-0.001-0.075-0.002l0.003 0c-0.687-0.039-1.213-0.629-1.174-1.316zM22.814 21.311c-0.575-0.379-0.737-1.152-0.36-1.728 0.378-0.575 1.151-0.735 1.726-0.358 0.576 0.377 0.737 1.15 0.359 1.726-0.377 0.577-1.15 0.737-1.725 0.36zM24.040 12.813c-0.615 0.31-1.365 0.063-1.674-0.552s-0.064-1.365 0.552-1.674c0.616-0.311 1.365-0.063 1.676 0.552 0.309 0.614 0.061 1.365-0.554 1.674zM17.298 7.503c-0.040 0.687-0.629 1.214-1.318 1.174-0.657-0.039-1.176-0.581-1.176-1.245 0-0.025 0.001-0.050 0.002-0.075l-0 0.003c0.039-0.688 0.628-1.214 1.315-1.175 0.659 0.039 1.179 0.582 1.179 1.248 0 0.024-0.001 0.049-0.002 0.073l0-0.003zM4.684 8.452c0.404 0.264 0.515 0.806 0.251 1.209-0.158 0.239-0.425 0.394-0.729 0.394-0.178 0-0.344-0.054-0.482-0.146l0.003 0.002c-0.403-0.264-0.516-0.806-0.251-1.209s0.805-0.516 1.208-0.251zM3.843 22.091c0.115-0.059 0.25-0.094 0.394-0.094 0.339 0 0.632 0.193 0.777 0.476l0.002 0.005c0.059 0.114 0.093 0.25 0.093 0.393 0 0.339-0.193 0.633-0.476 0.778l-0.005 0.002c-0.43 0.216-0.955 0.044-1.172-0.386s-0.044-0.957 0.387-1.174zM15.14 29.639c0.026-0.46 0.406-0.824 0.87-0.824 0.018 0 0.035 0 0.053 0.002l-0.002-0c0.46 0.027 0.823 0.406 0.823 0.871 0 0.018-0 0.035-0.002 0.052l0-0.002c-0.026 0.461-0.406 0.824-0.87 0.824-0.018 0-0.035-0-0.053-0.002l0.002 0c-0.46-0.026-0.823-0.406-0.823-0.87 0-0.018 0.001-0.036 0.002-0.054l-0 0.002zM27.455 23.548c-0.239-0.159-0.394-0.426-0.394-0.73 0-0.178 0.053-0.344 0.145-0.482l-0.002 0.003c0.265-0.403 0.806-0.516 1.209-0.251 0.239 0.159 0.394 0.427 0.394 0.73 0 0.178-0.053 0.344-0.144 0.482l0.002-0.003c-0.158 0.239-0.426 0.395-0.73 0.395-0.178 0-0.344-0.053-0.482-0.145l0.003 0.002zM28.298 9.91c-0.114 0.059-0.249 0.093-0.392 0.093-0.34 0-0.634-0.193-0.779-0.476l-0.002-0.005c-0.059-0.114-0.093-0.249-0.093-0.393 0-0.339 0.193-0.633 0.476-0.777l0.005-0.002c0.114-0.059 0.25-0.094 0.393-0.094 0.339 0 0.632 0.193 0.777 0.475l0.002 0.005c0.217 0.431 0.044 0.957-0.386 1.174zM16.912 2.361c-0.027 0.461-0.407 0.824-0.872 0.824-0.482 0-0.873-0.391-0.873-0.873 0-0.017 0-0.035 0.002-0.052l-0 0.002c0.028-0.483 0.439-0.851 0.921-0.823 0.461 0.027 0.824 0.407 0.824 0.872 0 0.018-0 0.035-0.002 0.052l0-0.002z"></path>
</svg>
