<!-- Generated by IcoMoon.io -->
<svg version="1.1" xmlns="http://www.w3.org/2000/svg" width="32" height="32" viewBox="0 0 32 32">
<title>BCH-alt</title>
<path d="M28.515 25.938h-5.637c3.101-2.174 5.129-5.773 5.129-9.845s-2.028-7.671-5.129-9.845h5.782c-2.925-3.799-7.52-6.248-12.685-6.248s-9.76 2.448-12.686 6.248h5.782c-3.102 2.174-5.129 5.773-5.129 9.845s2.027 7.671 5.129 9.845h-5.637c2.931 3.693 7.459 6.062 12.54 6.062s9.609-2.369 12.54-6.062zM6.426 18.488c-1.348-5.268 1.835-10.63 7.109-11.976s10.641 1.833 11.989 7.101c1.348 5.268-1.835 10.63-7.109 11.976s-10.642-1.834-11.989-7.102z"></path>
<path d="M21.157 16.427c-0.183-0.785-0.617-1.243-1.096-1.443s-1.083-0.175-1.083-0.175 0.413-0.404 0.539-0.735c0.127-0.331 0.115-0.791 0.073-1.021s-0.244-1.186-1.122-1.542c-0.678-0.276-1.375-0.276-2.268-0.106l-0.488-1.909-1.179 0.301 0.483 1.887-0.898 0.229-0.483-1.887-1.178 0.301 0.483 1.887-2.319 0.592 0.313 1.222 0.681-0.174c0.186-0.047 0.522-0.111 0.702 0.010s0.227 0.197 0.304 0.502l1.246 4.871c0.030 0.116 0.044 0.264-0.031 0.383s-0.169 0.166-0.406 0.226l-0.705 0.18 0.12 1.476 2.318-0.592 0.481 1.881 1.178-0.301-0.481-1.881 0.898-0.229 0.481 1.881 1.179-0.301-0.489-1.912c0.3-0.096 0.578-0.191 0.738-0.255l0.025-0.010c0.337-0.134 1.052-0.419 1.621-1.078 0.584-0.677 0.545-1.493 0.361-2.278zM15.040 15.515l-0.581-2.272s0.366-0.129 0.737-0.217c0.37-0.089 0.698-0.161 1.221-0.136s0.901 0.315 1.023 0.741c0.121 0.426 0.007 0.76-0.278 1.026s-0.715 0.481-1.141 0.608c-0.425 0.126-0.98 0.25-0.98 0.25zM18.536 18.198c-0.232 0.218-0.738 0.487-1.251 0.659s-1.3 0.355-1.3 0.355l-0.646-2.525s0.739-0.23 1.333-0.34c0.594-0.11 1.122-0.087 1.37-0.033s0.696 0.197 0.844 0.775c0.148 0.577-0.118 0.891-0.35 1.109z"></path>
</svg>
