<!-- Generated by IcoMoon.io -->
<svg version="1.1" xmlns="http://www.w3.org/2000/svg" width="32" height="32" viewBox="0 0 32 32">
<title>BCN-alt</title>
<path fill="#fff" d="M26.839 13.702s2.982-1.833 2.982-5.073c0-3.239-3.136-7.369-8.072-7.369h-13.864v9.048h-7.884v3.856h7.884v5.116h-7.884v3.856h7.884v7.603h12.836c6.067 0 11.26-3.309 11.26-9.325-0-6.015-5.142-7.712-5.142-7.712zM19.538 5.322c2.571 0 5.193 1.233 5.193 4.036s-2.776 4.216-5.347 4.216h-6.221v-8.252h6.375zM20.406 25.887h-7.244v-8.946h7.198c4.781 0 6.76 1.979 6.76 4.884s-3.475 4.062-6.715 4.062z"></path>
</svg>
