<!-- Generated by IcoMoon.io -->
<svg version="1.1" xmlns="http://www.w3.org/2000/svg" width="32" height="32" viewBox="0 0 32 32">
<title>BCN</title>
<path fill="#fff" d="M18.39 16.489h-3.877v4.818h3.901c1.745 0 3.616-0.623 3.616-2.187s-1.066-2.631-3.641-2.631zM20.743 12.405c0-1.509-1.412-2.174-2.797-2.174h-3.434v4.444h3.35c1.385 0 2.88-0.761 2.88-2.271z"></path>
<path fill="#fff" d="M16.020 0.041c-8.825 0-15.98 7.154-15.98 15.98s7.154 15.98 15.98 15.98c8.825 0 15.98-7.154 15.98-15.98s-7.154-15.98-15.98-15.98zM18.584 23.92h-6.913v-4.094h-4.246v-2.077h4.246v-2.755h-4.246v-2.077h4.246v-4.873h7.467c2.659 0 4.348 2.224 4.348 3.969s-1.606 2.732-1.606 2.732 2.769 0.914 2.769 4.153c-0 3.24-2.797 5.022-6.064 5.022z"></path>
</svg>
