<!-- Generated by IcoMoon.io -->
<svg version="1.1" xmlns="http://www.w3.org/2000/svg" width="32" height="32" viewBox="0 0 32 32">
<title>BTC-alt</title>
<path d="M25.82 15.925c-1.030-0.776-2.497-1.086-2.497-1.086s1.242-0.72 1.749-1.439c0.508-0.72 0.762-1.834 0.804-2.413s0.141-3.005-1.75-4.402c-1.462-1.081-3.138-1.51-5.389-1.649v-4.897h-3.019v4.839h-2.3v-4.839h-3.019v4.839h-5.939v3.135h1.746c0.476 0 1.322 0.053 1.682 0.456s0.423 0.614 0.423 1.396l0 12.493c0 0.296-0.056 0.663-0.311 0.903s-0.508 0.296-1.114 0.296h-1.806l-0.621 3.626h5.939v4.825h3.019v-4.825h2.3v4.825h3.019v-4.905c0.78-0.046 1.508-0.105 1.933-0.16 0.861-0.113 2.807-0.338 4.628-1.608s2.229-3.259 2.271-5.262c0.043-2.003-0.72-3.372-1.749-4.148zM13.419 8.292s0.959-0.085 1.905-0.071c0.946 0.014 1.778 0.042 3.019 0.423s1.974 1.312 2.003 2.413c0.028 1.101-0.452 1.834-1.298 2.3s-2.017 0.72-3.118 0.761c-1.1 0.042-2.511 0-2.511 0v-5.826zM20.176 22.725c-0.691 0.381-2.074 0.72-3.414 0.818s-3.344 0.057-3.344 0.057v-6.476s1.919-0.099 3.414 0c1.495 0.099 2.751 0.48 3.315 0.762s1.552 0.903 1.552 2.384c0 1.481-0.833 2.074-1.524 2.455z"></path>
</svg>
