<!-- Generated by IcoMoon.io -->
<svg version="1.1" xmlns="http://www.w3.org/2000/svg" width="32" height="32" viewBox="0 0 32 32">
<title>DCR-alt</title>
<path d="M16 0c-8.837 0-16 7.164-16 16s7.164 16.001 16 16.001 16-7.164 16-16.001c0-8.837-7.164-16-16-16zM12.739 22.737c-3.015 0-5.46-2.444-5.46-5.46 0-2.287 1.407-4.247 3.403-5.059l-3.402-2.954h3.893l5.881 5.105h-4.315c-1.603 0-2.908 1.304-2.908 2.907s1.305 2.907 2.908 2.907h1.375l2.94 2.552h-4.315zM24.721 22.737h-3.893l-5.881-5.105h4.315c1.603 0 2.907-1.305 2.907-2.908s-1.304-2.908-2.907-2.908h-1.375l-2.941-2.552h4.315c3.015 0 5.459 2.445 5.459 5.46 0 2.288-1.407 4.247-3.403 5.059l3.402 2.954z"></path>
</svg>
