<!-- Generated by IcoMoon.io -->
<svg version="1.1" xmlns="http://www.w3.org/2000/svg" width="32" height="32" viewBox="0 0 32 32">
<title>DCR</title>
<path fill="#fff" d="M32 13.659c0-5.532-4.484-10.017-10.016-10.017h-7.917l5.395 4.683h2.522c2.941 0 5.334 2.393 5.334 5.334s-2.393 5.335-5.334 5.335h-7.917l10.789 9.365h7.143l-6.242-5.419c3.661-1.49 6.243-5.084 6.243-9.281z"></path>
<path fill="#fff" d="M10.017 23.676c-2.941 0-5.334-2.393-5.334-5.334s2.394-5.334 5.334-5.334h7.916l-10.789-9.366h-7.143l6.242 5.419c-3.661 1.49-6.243 5.085-6.243 9.281 0 5.532 4.485 10.017 10.017 10.017h7.916l-5.395-4.683h-2.522z"></path>
</svg>
