<!-- Generated by IcoMoon.io -->
<svg version="1.1" xmlns="http://www.w3.org/2000/svg" width="32" height="32" viewBox="0 0 32 32">
<title>DGB-alt</title>
<path d="M15.991 0c-8.832 0-15.991 7.16-15.991 15.991s7.16 15.991 15.991 15.991 15.991-7.16 15.991-15.991c-0-8.832-7.16-15.991-15.992-15.991zM24.602 14.984c-0.156 2.067-2.614 6.459-7.446 7.344l-0.465 4.321-1.528-0.165 0.427-3.969c-0.435 0.035-0.855 0.058-1.261 0.073l-0.396 3.678-1.528-0.165 0.378-3.5c-3.118-0.062-5.032-0.634-5.032-0.634l4.908-9.275 3.64 0.674-3.856 7.631c4.037 0.267 6.256-1.698 7.496-3.802s0.055-4.26-1.618-4.611c-1.672-0.35-10.058-1.672-10.058-1.672l2.076-2.346s2.332 0.412 4.934 0.884l0.4-3.709 1.528 0.165-0.412 3.821c0.415 0.076 0.828 0.153 1.229 0.228l0.413-3.831 1.528 0.165-0.426 3.957c3.426 0.702 5.23 2.613 5.071 4.737z"></path>
</svg>
