<!-- Generated by IcoMoon.io -->
<svg version="1.1" xmlns="http://www.w3.org/2000/svg" width="32" height="32" viewBox="0 0 32 32">
<title>DGB</title>
<path fill="#fff" d="M21.14 6.909l0.654-6.070-2.344-0.253-0.634 5.877c-0.615-0.115-1.248-0.232-1.885-0.349l0.632-5.862-2.345-0.252-0.613 5.689c7.81 1.133 5.244 0.659 2.676 0.191l-10.243-1.548-3.185 3.599s12.864 2.027 15.428 2.565c2.565 0.538 4.383 3.846 2.482 7.073s-5.306 6.243-11.499 5.833l5.915-11.706-5.584-1.034-7.528 14.229s2.936 0.879 7.719 0.973l-0.579 5.369 2.344 0.253 0.608-5.643c0.623-0.023 1.268-0.059 1.935-0.112l-0.656 6.089 2.344 0.253 0.714-6.629c7.412-1.358 11.184-8.095 11.422-11.266 0.244-3.258-2.523-6.19-7.779-7.268z"></path>
</svg>
