<!-- Generated by IcoMoon.io -->
<svg version="1.1" xmlns="http://www.w3.org/2000/svg" width="32" height="32" viewBox="0 0 32 32">
<title>EOS-alt</title>
<path d="M15.461 10.087v-3.033l-3.871 5.040 0.917 2.659zM11.771 15.917l-0.705-2.044-1.345 5.283 2.050-3.239zM14.928 21.771v0h2.125l1.963-5.76-3.016-4.764-3.043 4.807zM22.247 19.105l-1.364-5.237-0.683 2.004zM20.351 12.093l-3.812-5.024v3.017l2.923 4.617zM12.22 17.219l-2.881 4.552h4.451zM15.997 24.87l0.691-2.027h-1.39zM10.442 22.843l4.593 2.54-0.876-2.54zM16.958 25.387l4.6-2.543h-3.733zM18.191 21.771h4.471l-2.906-4.592z"></path>
<path d="M16 0c-8.836 0-16 7.163-16 16s7.163 16 16 16 16-7.163 16-16-7.163-16-16-16zM23.899 22.776l-7.638 4.223c-0.075 0.042-0.166 0.067-0.261 0.067s-0.186-0.025-0.264-0.069l0.003 0.001-7.638-4.223c-0.166-0.093-0.277-0.268-0.277-0.469 0-0.047 0.006-0.092 0.017-0.135l-0.001 0.004 2.626-10.31c0.018-0.070 0.050-0.136 0.094-0.194l5.012-6.526c0.1-0.129 0.254-0.211 0.428-0.211 0.175 0 0.33 0.083 0.429 0.212l0.001 0.001 4.953 6.527c0.043 0.056 0.074 0.12 0.092 0.189l2.685 10.311c0.011 0.040 0.017 0.087 0.017 0.135 0 0.201-0.111 0.376-0.274 0.467l-0.003 0.001z"></path>
</svg>
