<!-- Generated by IcoMoon.io -->
<svg version="1.1" xmlns="http://www.w3.org/2000/svg" width="32" height="32" viewBox="0 0 32 32">
<title>EOS</title>
<path fill="#fff" d="M27.821 24.977l-3.89-14.939c-0.028-0.105-0.074-0.196-0.134-0.275l0.001 0.002-7.175-9.456c-0.144-0.188-0.369-0.309-0.623-0.309-0.252 0-0.476 0.119-0.619 0.304l-0.001 0.002-7.262 9.456c-0.062 0.079-0.109 0.173-0.135 0.276l-0.001 0.005-3.804 14.939c-0.015 0.057-0.024 0.123-0.024 0.191 0 0.291 0.16 0.545 0.398 0.677l0.004 0.002 11.066 6.119c0.109 0.061 0.24 0.098 0.379 0.098s0.27-0.036 0.383-0.1l-0.004 0.002 11.066-6.119c0.241-0.135 0.401-0.388 0.401-0.679 0-0.069-0.009-0.136-0.026-0.2l0.001 0.005zM25.052 20.533l-2.966-4.685 0.989-2.903 1.976 7.588zM16.78 3.095l5.524 7.279-1.289 3.782-4.235-6.69v-4.372zM16 9.148l4.369 6.902-2.844 8.345-3.079-0-2.856-8.282 4.409-6.965zM15.22 3.072v4.394l-4.28 6.761-1.328-3.852 5.608-7.302zM8.851 12.952l1.021 2.962-2.97 4.693 1.949-7.654zM10.523 17.8l2.274 6.595h-6.449l4.175-6.595zM7.947 25.949h5.386l1.269 3.68-6.655-3.68zM15.996 28.885l-1.013-2.936h2.013l-1.001 2.936zM17.389 29.634l1.256-3.685h5.409l-6.665 3.685zM19.174 24.395l2.267-6.653 4.211 6.653h-6.478z"></path>
</svg>
