<!-- Generated by IcoMoon.io -->
<svg version="1.1" xmlns="http://www.w3.org/2000/svg" width="31" height="32" viewBox="0 0 31 32">
<title>ICX</title>
<path fill="#fff" d="M13.84 3.28c3.32-0.56 6.72 0.48 9.44 2.36-1.12 1.16-2.28 2.32-3.44 3.48-2.68-1.6-6.2-1.56-8.72 0.36-3.32 2.36-4.16 7.24-2.12 10.72-1.12 1.2-2.28 2.36-3.4 3.52-2.2-3.2-3.040-7.28-2-11.040 1.16-4.8 5.32-8.68 10.24-9.4z"></path>
<path fill="#fff" d="M25.8 8.28c2.48 3.44 3.2 8.040 1.76 12.040-1.28 3.68-4.32 6.76-8.080 7.92-3.84 1.32-8.080 0.4-11.36-1.88 1.12-1.2 2.28-2.36 3.44-3.52 1.84 1 4.080 1.56 6.12 0.88 3.56-0.88 6.12-4.52 5.84-8.16 0-1.36-0.56-2.6-1.12-3.8 1.16-1.16 2.28-2.32 3.4-3.48z"></path>
<path fill="#fff" d="M6.32 28.84c0 1.745-1.415 3.16-3.16 3.16s-3.16-1.415-3.16-3.16c0-1.745 1.415-3.16 3.16-3.16s3.16 1.415 3.16 3.16z"></path>
<path fill="#fff" d="M31.44 3.16c0 1.745-1.415 3.16-3.16 3.16s-3.16-1.415-3.16-3.16c0-1.745 1.415-3.16 3.16-3.16s3.16 1.415 3.16 3.16z"></path>
</svg>
