<!-- Generated by IcoMoon.io -->
<svg version="1.1" xmlns="http://www.w3.org/2000/svg" width="32" height="32" viewBox="0 0 32 32">
<title>IOTA-alt</title>
<path d="M16 0c-8.832 0-16 7.168-16 16s7.168 16 16 16 16-7.168 16-16-7.168-16-16-16zM22.404 10.412c0.125-0.512 0.58-0.887 1.123-0.887 0.638 0 1.154 0.517 1.154 1.154s-0.517 1.154-1.154 1.154c-0.095 0-0.187-0.011-0.275-0.033l0.008 0.002c-0.512-0.125-0.887-0.58-0.887-1.123 0-0.095 0.012-0.187 0.033-0.276l-0.002 0.008zM22.238 13.191c0.098-0.419 0.468-0.726 0.91-0.726 0.516 0 0.934 0.418 0.934 0.934 0 0.080-0.010 0.158-0.029 0.232l0.001-0.006c-0.105 0.41-0.47 0.708-0.906 0.708-0.516 0-0.934-0.418-0.934-0.934 0-0.073 0.008-0.145 0.024-0.213l-0.001 0.006zM21.1 17.964c-0.267-0.065-0.462-0.302-0.462-0.585 0-0.332 0.269-0.601 0.601-0.601 0.049 0 0.097 0.006 0.143 0.017l-0.004-0.001c0.267 0.065 0.462 0.302 0.462 0.585 0 0.332-0.269 0.601-0.601 0.601-0.049 0-0.097-0.006-0.143-0.017l0.004 0.001zM21.475 20.319c-0.072 0.154-0.225 0.259-0.404 0.259-0.245 0-0.444-0.199-0.444-0.444 0-0.072 0.017-0.14 0.048-0.201l-0.001 0.003c0.074-0.147 0.224-0.245 0.397-0.245 0.245 0 0.444 0.199 0.444 0.444 0 0.067-0.015 0.13-0.041 0.187l0.001-0.003zM20.398 13.998c-0.556 0-1.006-0.45-1.006-1.006s0.451-1.006 1.006-1.006v0c0.556 0 1.006 0.45 1.006 1.006s-0.451 1.006-1.006 1.006v0zM21.845 19.154c0.083-0.174 0.258-0.293 0.46-0.293 0.28 0 0.508 0.227 0.508 0.508 0 0.081-0.019 0.158-0.053 0.226l0.001-0.003c-0.084 0.17-0.257 0.285-0.456 0.285-0.28 0-0.508-0.227-0.508-0.508 0-0.078 0.018-0.152 0.049-0.218l-0.001 0.003zM22.075 16.467c-0.383-0.093-0.662-0.433-0.662-0.839 0-0.476 0.386-0.862 0.862-0.862 0.071 0 0.14 0.009 0.206 0.025l-0.006-0.001c0.383 0.094 0.662 0.434 0.662 0.839 0 0.476-0.386 0.862-0.862 0.862-0.071 0-0.14-0.009-0.206-0.025l0.006 0.001zM20.786 11.325c-0.602 0-1.089-0.488-1.089-1.089s0.488-1.089 1.089-1.089v0c0.602 0 1.089 0.488 1.089 1.089s-0.488 1.089-1.089 1.089v0zM20.482 5.689c0.744 0 1.347 0.603 1.347 1.347s-0.603 1.347-1.347 1.347v0c-0.744 0-1.347-0.603-1.347-1.347s0.603-1.347 1.347-1.347v0zM19.697 14.558c0.003-0 0.006-0 0.010-0 0.387 0 0.702 0.314 0.702 0.702s-0.314 0.702-0.702 0.702c-0.004 0-0.007-0-0.011-0h0.001c-0.383-0.006-0.692-0.318-0.692-0.701s0.308-0.696 0.691-0.701h0.001zM18.615 17.544c-0.338 0-0.613-0.274-0.613-0.613s0.274-0.613 0.613-0.613v0c0.338 0 0.613 0.274 0.613 0.613s-0.274 0.613-0.613 0.613v0zM19.188 19.403c-0.053 0.216-0.245 0.374-0.474 0.374-0.269 0-0.487-0.218-0.487-0.487 0-0.040 0.005-0.079 0.014-0.116l-0.001 0.003c0.053-0.216 0.245-0.374 0.474-0.374 0.269 0 0.487 0.218 0.487 0.487 0 0.040-0.005 0.079-0.014 0.116l0.001-0.003zM17.347 17.544c0.004-0 0.008-0 0.013-0 0.314 0 0.569 0.255 0.569 0.569s-0.255 0.569-0.569 0.569c-0.004 0-0.009-0-0.013-0h0.001c-0.309-0.007-0.556-0.259-0.556-0.568s0.247-0.561 0.555-0.568h0.001zM16.676 11.991c-0.047 0.016-0.102 0.025-0.159 0.025-0.29 0-0.525-0.235-0.525-0.525 0-0.24 0.161-0.442 0.381-0.505l0.004-0.001c0.042-0.012 0.091-0.019 0.141-0.019 0.29 0 0.525 0.235 0.525 0.525 0 0.233-0.152 0.431-0.363 0.499l-0.004 0.001zM17.754 14.505c-0.083 0.050-0.184 0.080-0.291 0.080-0.314 0-0.568-0.255-0.568-0.568 0-0.212 0.116-0.397 0.289-0.495l0.003-0.001c0.080-0.045 0.175-0.072 0.277-0.072 0.314 0 0.568 0.255 0.568 0.568 0 0.206-0.11 0.387-0.274 0.487l-0.003 0.001zM17.667 11.773c0.042-0.013 0.090-0.020 0.139-0.020 0.269 0 0.487 0.218 0.487 0.487 0 0.219-0.145 0.405-0.345 0.466l-0.003 0.001c-0.042 0.013-0.090 0.020-0.139 0.020-0.269 0-0.487-0.218-0.487-0.487 0-0.219 0.145-0.405 0.345-0.466l0.003-0.001zM18.243 10.216c0.010-0.001 0.021-0.001 0.032-0.001 0.227 0 0.411 0.184 0.411 0.411 0 0.216-0.166 0.393-0.378 0.41l-0.001 0c-0.010 0.001-0.021 0.001-0.032 0.001-0.227 0-0.411-0.184-0.411-0.411 0-0.216 0.166-0.393 0.378-0.41l0.001-0zM17.316 9.335c0.010-0.001 0.022-0.001 0.035-0.001 0.245 0 0.444 0.199 0.444 0.444 0 0.233-0.179 0.424-0.407 0.442l-0.002 0c-0.010 0.001-0.022 0.001-0.035 0.001-0.245 0-0.444-0.199-0.444-0.444 0-0.233 0.179-0.424 0.407-0.442l0.002-0zM16.043 8.585c0.012-0.001 0.026-0.002 0.040-0.002 0.28 0 0.508 0.227 0.508 0.508 0 0.266-0.205 0.485-0.466 0.506l-0.002 0c-0.012 0.001-0.026 0.002-0.040 0.002-0.28 0-0.508-0.227-0.508-0.508 0-0.266 0.205-0.485 0.466-0.506l0.002-0zM16.344 13.199c0.052 0.088 0.082 0.194 0.082 0.306 0 0.338-0.274 0.613-0.613 0.613-0.226 0-0.423-0.122-0.529-0.303l-0.002-0.003c-0.052-0.088-0.082-0.194-0.082-0.306 0-0.338 0.274-0.613 0.613-0.613 0.226 0 0.423 0.122 0.529 0.303l0.002 0.003zM11.782 17.807c0.096-0.101 0.231-0.164 0.381-0.164 0.29 0 0.525 0.235 0.525 0.525 0 0.14-0.055 0.267-0.144 0.361l0-0c-0.096 0.101-0.231 0.164-0.381 0.164-0.29 0-0.525-0.235-0.525-0.525 0-0.14 0.055-0.267 0.144-0.361l-0 0zM11.821 16.348c0.089-0.094 0.215-0.152 0.354-0.152 0.269 0 0.487 0.218 0.487 0.487 0 0.13-0.051 0.248-0.134 0.335l0-0c-0.089 0.094-0.215 0.152-0.354 0.152-0.269 0-0.487-0.218-0.487-0.487 0-0.13 0.051-0.248 0.134-0.335l-0 0zM12.131 19.413c0.11-0.116 0.265-0.188 0.437-0.188 0.332 0 0.601 0.269 0.601 0.601 0 0.16-0.063 0.306-0.165 0.413l0-0c-0.11 0.116-0.265 0.188-0.437 0.188-0.332 0-0.601-0.269-0.601-0.601 0-0.16 0.063-0.306 0.165-0.413l-0 0zM14.175 14.012c-0.101 0.060-0.222 0.095-0.352 0.095-0.387 0-0.701-0.314-0.701-0.701 0-0.259 0.14-0.485 0.349-0.606l0.003-0.002c0.1-0.059 0.221-0.093 0.349-0.093 0.387 0 0.701 0.314 0.701 0.701 0 0.258-0.139 0.483-0.346 0.605l-0.003 0.002zM14.371 16.372c-0.099 0.175-0.284 0.292-0.496 0.292-0.314 0-0.568-0.255-0.568-0.568 0-0.108 0.030-0.208 0.082-0.294l-0.001 0.003c0.101-0.167 0.282-0.277 0.488-0.277 0.314 0 0.568 0.255 0.568 0.568 0 0.102-0.027 0.197-0.073 0.28l0.001-0.003zM12.94 21.005c0.158-0.166 0.38-0.27 0.626-0.27 0.476 0 0.862 0.386 0.862 0.862 0 0.23-0.090 0.438-0.236 0.593l0-0c-0.158 0.166-0.38 0.27-0.626 0.27-0.476 0-0.862-0.386-0.862-0.862 0-0.23 0.090-0.438 0.236-0.593l-0 0zM13.961 18.307c-0.184-0.108-0.306-0.305-0.306-0.53 0-0.338 0.274-0.613 0.613-0.613 0.113 0 0.218 0.030 0.309 0.084l-0.003-0.002c0.184 0.108 0.306 0.305 0.306 0.53 0 0.338-0.274 0.613-0.613 0.613-0.113 0-0.218-0.030-0.309-0.084l0.003 0.002zM14.567 19.198c0.123-0.215 0.35-0.358 0.611-0.358 0.387 0 0.702 0.314 0.702 0.702 0 0.132-0.036 0.255-0.1 0.361l0.002-0.003c-0.124 0.207-0.348 0.344-0.603 0.344-0.387 0-0.702-0.314-0.702-0.702 0-0.126 0.033-0.245 0.092-0.347l-0.002 0.003zM15.464 10.837c0.018 0.054 0.028 0.116 0.028 0.18 0 0.332-0.269 0.601-0.601 0.601-0.274 0-0.505-0.183-0.577-0.433l-0.001-0.004c-0.014-0.049-0.023-0.105-0.023-0.163 0-0.332 0.269-0.601 0.601-0.601 0.268 0 0.494 0.175 0.572 0.417l0.001 0.004zM14.35 7.986c0.017-0.001 0.037-0.002 0.057-0.002 0.402 0 0.728 0.326 0.728 0.728 0 0.382-0.294 0.696-0.669 0.726l-0.003 0c-0.017 0.001-0.037 0.002-0.057 0.002-0.402 0-0.728-0.326-0.728-0.728 0-0.382 0.294-0.696 0.669-0.726l0.003-0zM13.68 10.741c0.025 0.077 0.039 0.166 0.039 0.258 0 0.476-0.386 0.862-0.862 0.862-0.393 0-0.724-0.262-0.828-0.621l-0.002-0.006c-0.021-0.070-0.033-0.151-0.033-0.235 0-0.476 0.386-0.862 0.862-0.862 0.384 0 0.71 0.251 0.821 0.599l0.002 0.006zM12.334 7.802c0.021-0.002 0.046-0.003 0.071-0.003 0.436 0 0.789 0.353 0.789 0.789 0 0.417-0.324 0.759-0.734 0.787l-0.002 0c-0.015 0.001-0.034 0.002-0.052 0.002-0.436 0-0.789-0.353-0.789-0.789 0-0.41 0.314-0.748 0.714-0.785l0.003-0zM12.381 13.428c0.085 0.144 0.135 0.318 0.135 0.503 0 0.556-0.45 1.006-1.006 1.006-0.37 0-0.694-0.2-0.869-0.498l-0.003-0.005c-0.085-0.144-0.135-0.318-0.135-0.503 0-0.556 0.45-1.006 1.006-1.006 0.37 0 0.694 0.2 0.869 0.498l0.003 0.005zM10.203 17.317c-0.048-0.066-0.077-0.149-0.077-0.239 0-0.227 0.184-0.411 0.411-0.411 0.143 0 0.269 0.073 0.342 0.183l0.001 0.002c0.043 0.064 0.068 0.142 0.068 0.227 0 0.227-0.184 0.411-0.411 0.411-0.137 0-0.259-0.067-0.334-0.171l-0.001-0.001zM10.521 18.674c-0.070 0.049-0.157 0.078-0.251 0.078-0.245 0-0.443-0.198-0.443-0.443 0-0.151 0.076-0.284 0.191-0.364l0.001-0.001c0.070-0.049 0.157-0.078 0.251-0.078 0.245 0 0.443 0.198 0.443 0.443 0 0.151-0.076 0.284-0.191 0.364l-0.001 0.001zM11.39 11.077c0.026 0.082 0.042 0.177 0.042 0.276 0 0.516-0.418 0.934-0.934 0.934-0.424 0-0.782-0.282-0.896-0.669l-0.002-0.007c-0.023-0.077-0.036-0.166-0.036-0.258 0-0.516 0.418-0.934 0.934-0.934 0.417 0 0.771 0.274 0.89 0.651l0.002 0.007zM10.027 8.017c0.026-0.002 0.056-0.004 0.087-0.004 0.539 0 0.975 0.437 0.975 0.975 0 0.516-0.4 0.938-0.907 0.973l-0.003 0c-0.020 0.001-0.042 0.002-0.065 0.002-0.539 0-0.975-0.437-0.975-0.975 0-0.508 0.389-0.926 0.885-0.971l0.004-0zM7.613 11.271c0.101-0.032 0.217-0.050 0.337-0.050 0.638 0 1.155 0.517 1.155 1.155 0 0.523-0.347 0.964-0.824 1.107l-0.008 0.002c-0.097 0.029-0.207 0.046-0.322 0.046-0.638 0-1.155-0.517-1.155-1.155 0-0.517 0.34-0.955 0.809-1.102l0.008-0.002zM6.984 18.003c-0.644 0.372-1.468 0.151-1.84-0.493s-0.151-1.468 0.493-1.84c0.644-0.372 1.468-0.151 1.84 0.493s0.151 1.468-0.493 1.84zM9.473 15.916c-0.156 0.092-0.344 0.146-0.544 0.146-0.602 0-1.089-0.488-1.089-1.089s0.488-1.089 1.089-1.089c0.401 0 0.751 0.217 0.94 0.539l0.003 0.005c0.092 0.156 0.146 0.344 0.146 0.545 0 0.401-0.217 0.752-0.54 0.941l-0.005 0.003zM9.89 20.037c-0.059-0.082-0.094-0.184-0.094-0.294 0-0.28 0.227-0.508 0.508-0.508 0.176 0 0.331 0.089 0.422 0.225l0.001 0.002c0.053 0.079 0.085 0.176 0.085 0.281 0 0.28-0.227 0.508-0.508 0.508-0.17 0-0.321-0.084-0.413-0.212l-0.001-0.002zM10.219 21.803c-0.082-0.116-0.132-0.261-0.132-0.418 0-0.402 0.326-0.728 0.728-0.728 0.25 0 0.471 0.126 0.602 0.319l0.002 0.003c0.078 0.114 0.124 0.255 0.124 0.407 0 0.402-0.326 0.728-0.728 0.728-0.246 0-0.463-0.122-0.595-0.309l-0.002-0.002zM11.068 23.641c-0.087-0.125-0.139-0.28-0.139-0.446 0-0.436 0.353-0.789 0.789-0.789 0.269 0 0.506 0.134 0.649 0.34l0.002 0.003c0.087 0.125 0.139 0.28 0.139 0.446 0 0.436-0.353 0.789-0.789 0.789-0.269 0-0.506-0.134-0.649-0.34l-0.002-0.003zM13.763 25.783c-0.154 0.107-0.346 0.171-0.552 0.171-0.539 0-0.975-0.437-0.975-0.975 0-0.332 0.166-0.626 0.42-0.802l0.003-0.002c0.154-0.107 0.346-0.171 0.552-0.171 0.539 0 0.975 0.437 0.975 0.975 0 0.332-0.166 0.626-0.42 0.802l-0.003 0.002zM15.732 24.104c-0.171 0.183-0.413 0.297-0.683 0.297-0.516 0-0.934-0.418-0.934-0.934 0-0.251 0.099-0.479 0.26-0.646l-0 0c0.17-0.177 0.409-0.288 0.674-0.288 0.516 0 0.934 0.418 0.934 0.934 0 0.246-0.095 0.471-0.252 0.637l0.001-0.001zM15.916 20.787c0.177-0.303 0.501-0.503 0.871-0.503 0.556 0 1.006 0.45 1.006 1.006 0 0.185-0.050 0.359-0.137 0.508l0.003-0.005c-0.177 0.303-0.501 0.503-0.871 0.503-0.556 0-1.006-0.45-1.006-1.006 0-0.185 0.050-0.359 0.137-0.508l-0.003 0.005zM18.064 25.95c-0.211 0.227-0.512 0.369-0.846 0.369-0.638 0-1.155-0.517-1.155-1.155 0-0.311 0.123-0.594 0.324-0.802l-0 0c0.21-0.218 0.505-0.353 0.831-0.353 0.638 0 1.155 0.517 1.155 1.155 0 0.304-0.117 0.58-0.309 0.786l0.001-0.001zM19.924 23.549c-0.192 0.328-0.542 0.545-0.943 0.545-0.602 0-1.089-0.488-1.089-1.089 0-0.201 0.054-0.388 0.149-0.55l-0.003 0.005c0.192-0.328 0.542-0.545 0.943-0.545 0.602 0 1.089 0.488 1.089 1.089 0 0.201-0.054 0.388-0.149 0.55l0.003-0.005zM20.249 20.681c-0.068 0.14-0.209 0.234-0.371 0.234-0.227 0-0.412-0.184-0.412-0.412 0-0.064 0.015-0.125 0.041-0.18l-0.001 0.002c0.068-0.14 0.209-0.234 0.371-0.234 0.227 0 0.412 0.184 0.412 0.412 0 0.064-0.015 0.125-0.041 0.18l0.001-0.002zM20.517 18.68c-0.057 0.233-0.264 0.403-0.511 0.403-0.29 0-0.525-0.235-0.525-0.525 0-0.043 0.005-0.085 0.015-0.125l-0.001 0.004c0.057-0.233 0.264-0.403 0.511-0.403 0.29 0 0.525 0.235 0.525 0.525 0 0.043-0.005 0.085-0.015 0.125l0.001-0.004zM23.070 25.014c-0.372 0.644-1.196 0.865-1.84 0.493s-0.865-1.196-0.493-1.84c0.372-0.644 1.196-0.865 1.84-0.493s0.865 1.196 0.493 1.84zM24.126 18.424c-0.12 0.247-0.369 0.415-0.657 0.415-0.402 0-0.728-0.326-0.728-0.728 0-0.114 0.026-0.222 0.073-0.318l-0.002 0.004c0.12-0.247 0.369-0.415 0.657-0.415 0.402 0 0.728 0.326 0.728 0.728 0 0.114-0.026 0.222-0.073 0.318l0.002-0.004zM25.294 16.77c-0.13 0.268-0.4 0.449-0.712 0.449-0.436 0-0.789-0.353-0.789-0.789 0-0.124 0.028-0.24 0.079-0.345l-0.002 0.005c0.13-0.268 0.4-0.449 0.712-0.449 0.436 0 0.789 0.353 0.789 0.789 0 0.124-0.028 0.24-0.079 0.345l0.002-0.005zM26.261 14.665c-0.161 0.331-0.494 0.555-0.88 0.555-0.539 0-0.975-0.437-0.975-0.975 0-0.153 0.035-0.297 0.098-0.426l-0.003 0.006c0.161-0.331 0.494-0.555 0.88-0.555 0.539 0 0.975 0.437 0.975 0.975 0 0.153-0.035 0.297-0.098 0.426l0.003-0.006z"></path>
</svg>
