<!-- Generated by IcoMoon.io -->
<svg version="1.1" xmlns="http://www.w3.org/2000/svg" width="32" height="32" viewBox="0 0 32 32">
<title>IOTA</title>
<path fill="#fff" d="M19.374 19.16c0 0.47-0.381 0.85-0.85 0.85s-0.85-0.381-0.85-0.85c0-0.47 0.381-0.85 0.85-0.85s0.85 0.381 0.85 0.85z"></path>
<path fill="#fff" d="M21.337 17.394c0 0.506-0.41 0.916-0.916 0.916s-0.916-0.41-0.916-0.916c0-0.506 0.41-0.916 0.916-0.916s0.916 0.41 0.916 0.916z"></path>
<path fill="#fff" d="M23.088 14.893c0 0.579-0.47 1.049-1.049 1.049s-1.049-0.47-1.049-1.049c0-0.579 0.47-1.049 1.049-1.049s1.049 0.47 1.049 1.049z"></path>
<path fill="#fff" d="M24.593 11.501c0 0.831-0.674 1.505-1.505 1.505s-1.505-0.674-1.505-1.505c0-0.831 0.674-1.505 1.505-1.505s1.505 0.674 1.505 1.505z"></path>
<path fill="#fff" d="M25.298 7.378c0 0.9-0.73 1.629-1.63 1.629s-1.63-0.73-1.63-1.63c0-0.9 0.73-1.63 1.63-1.63s1.63 0.73 1.63 1.63z"></path>
<path fill="#fff" d="M25.227 2.592c0 1.113-0.902 2.015-2.015 2.015s-2.015-0.902-2.015-2.015c0-1.113 0.902-2.015 2.015-2.015s2.015 0.902 2.015 2.015z"></path>
<path fill="#fff" d="M20.737 20.211c0.391 0.093 0.633 0.486 0.54 0.878s-0.486 0.633-0.878 0.54c-0.391-0.093-0.633-0.486-0.54-0.878s0.486-0.633 0.878-0.54z"></path>
<path fill="#fff" d="M22.683 19.061c0.422 0.101 0.682 0.524 0.582 0.946s-0.524 0.682-0.946 0.582c-0.422-0.101-0.682-0.524-0.582-0.946s0.524-0.682 0.946-0.582z"></path>
<path fill="#fff" d="M24.555 17.186c0.483 0.115 0.781 0.6 0.666 1.083s-0.6 0.781-1.083 0.666c-0.483-0.115-0.781-0.6-0.666-1.083s0.6-0.781 1.083-0.666z"></path>
<path fill="#fff" d="M26.193 14.187c0.693 0.165 1.121 0.861 0.956 1.554s-0.861 1.121-1.554 0.956c-0.693-0.165-1.121-0.861-0.956-1.554s0.861-1.121 1.554-0.956z"></path>
<path fill="#fff" d="M27.521 10.762c0.75 0.179 1.213 0.932 1.035 1.682s-0.932 1.213-1.682 1.035c-0.75-0.179-1.213-0.932-1.035-1.682s0.932-1.213 1.682-1.035z"></path>
<path fill="#fff" d="M28.168 6.361c0.928 0.221 1.501 1.152 1.28 2.080s-1.152 1.501-2.080 1.28c-0.928-0.221-1.501-1.152-1.28-2.080s1.152-1.501 2.080-1.28z"></path>
<path fill="#fff" d="M22.575 22.181c0.307 0.146 0.437 0.514 0.29 0.821s-0.514 0.437-0.821 0.29c-0.307-0.146-0.437-0.514-0.29-0.821s0.514-0.437 0.821-0.29z"></path>
<path fill="#fff" d="M24.386 21.576c0.331 0.158 0.471 0.554 0.313 0.885s-0.554 0.471-0.885 0.313c-0.331-0.158-0.471-0.554-0.313-0.885s0.554-0.471 0.885-0.313z"></path>
<path fill="#fff" d="M26.265 20.36c0.379 0.181 0.539 0.634 0.358 1.013s-0.634 0.539-1.013 0.358c-0.379-0.181-0.539-0.634-0.358-1.013s0.634-0.539 1.013-0.358z"></path>
<path fill="#fff" d="M28.151 18.173c0.543 0.259 0.773 0.91 0.514 1.453s-0.91 0.773-1.453 0.514c-0.543-0.259-0.773-0.91-0.514-1.453s0.91-0.773 1.453-0.514z"></path>
<path fill="#fff" d="M29.854 15.58c0.588 0.281 0.837 0.985 0.556 1.573s-0.985 0.837-1.573 0.556c-0.588-0.281-0.837-0.985-0.556-1.573s0.985-0.837 1.573-0.556z"></path>
<path fill="#fff" d="M31.17 12.059c0.727 0.347 1.035 1.218 0.688 1.945s-1.218 1.035-1.945 0.688c-0.727-0.347-1.035-1.218-0.688-1.945s1.218-1.035 1.945-0.688z"></path>
<path fill="#fff" d="M19.444 12.602c0.235 0.407 0.095 0.927-0.311 1.161s-0.927 0.095-1.161-0.311c-0.235-0.407-0.095-0.927 0.311-1.161s0.927-0.095 1.161 0.311z"></path>
<path fill="#fff" d="M17.023 11.81c0.253 0.438 0.103 0.999-0.335 1.252s-0.999 0.103-1.252-0.335c-0.253-0.438-0.103-0.999 0.335-1.252s0.999-0.103 1.252 0.335z"></path>
<path fill="#fff" d="M14.163 11.593c0.29 0.502 0.118 1.143-0.384 1.433s-1.143 0.118-1.433-0.384c-0.29-0.502-0.118-1.143 0.384-1.433s1.143-0.118 1.433 0.384z"></path>
<path fill="#fff" d="M11.096 12.152c0.416 0.72 0.169 1.64-0.551 2.056s-1.64 0.169-2.056-0.551c-0.416-0.72-0.169-1.64 0.551-2.056s1.64-0.169 2.056 0.551z"></path>
<path fill="#fff" d="M7.343 13.648c0.45 0.779 0.183 1.776-0.596 2.226s-1.776 0.183-2.226-0.596c-0.45-0.779-0.183-1.776 0.596-2.226s1.776-0.183 2.226 0.596z"></path>
<path fill="#fff" d="M3.76 16.243c0.556 0.964 0.226 2.196-0.738 2.752s-2.196 0.226-2.752-0.738c-0.556-0.964-0.226-2.196 0.738-2.752s2.196-0.226 2.752 0.738z"></path>
<path fill="#fff" d="M19.909 10.169c0.115 0.386-0.105 0.791-0.49 0.906s-0.791-0.104-0.906-0.49c-0.115-0.386 0.105-0.791 0.49-0.906s0.791 0.104 0.906 0.49z"></path>
<path fill="#fff" d="M18.048 9.027c0.124 0.416-0.113 0.853-0.528 0.977s-0.853-0.113-0.977-0.528c-0.124-0.416 0.113-0.853 0.528-0.977s0.853 0.113 0.977 0.528z"></path>
<path fill="#fff" d="M15.708 8.278c0.142 0.476-0.129 0.977-0.605 1.118s-0.977-0.129-1.118-0.605c-0.142-0.476 0.129-0.977 0.605-1.118s0.977 0.129 1.118 0.605z"></path>
<path fill="#fff" d="M13.039 8.135c0.203 0.683-0.185 1.401-0.868 1.604s-1.401-0.185-1.604-0.868c-0.203-0.683 0.185-1.401 0.868-1.604s1.401 0.185 1.604 0.868z"></path>
<path fill="#fff" d="M9.614 8.636c0.22 0.739-0.2 1.517-0.939 1.737s-1.517-0.2-1.737-0.939c-0.22-0.739 0.2-1.517 0.939-1.737s1.517 0.2 1.737 0.939z"></path>
<path fill="#fff" d="M6.111 10.088c0.272 0.914-0.248 1.876-1.162 2.148s-1.876-0.248-2.148-1.162c-0.272-0.914 0.248-1.876 1.162-2.148s1.876 0.248 2.148 1.162z"></path>
<path fill="#fff" d="M20.526 7.915c0.026 0.339-0.227 0.635-0.566 0.661s-0.635-0.227-0.661-0.566c-0.026-0.339 0.227-0.635 0.566-0.661s0.635 0.227 0.661 0.566z"></path>
<path fill="#fff" d="M19.192 6.642c0.028 0.365-0.245 0.684-0.61 0.713s-0.684-0.245-0.713-0.61c-0.028-0.365 0.245-0.684 0.61-0.713s0.684 0.245 0.713 0.61z"></path>
<path fill="#fff" d="M17.39 5.607c0.033 0.418-0.28 0.784-0.698 0.816s-0.784-0.28-0.816-0.698c-0.033-0.418 0.28-0.784 0.698-0.816s0.784 0.28 0.816 0.698z"></path>
<path fill="#fff" d="M15.212 5.016c0.047 0.6-0.401 1.124-1.001 1.171s-1.124-0.401-1.171-1.001c-0.047-0.6 0.401-1.124 1.001-1.171s1.124 0.401 1.171 1.001z"></path>
<path fill="#fff" d="M12.294 4.822c0.051 0.65-0.435 1.217-1.084 1.268s-1.217-0.435-1.268-1.084c-0.051-0.65 0.435-1.217 1.084-1.268s1.217 0.435 1.268 1.084z"></path>
<path fill="#fff" d="M9.143 5.4c0.063 0.803-0.537 1.505-1.341 1.568s-1.505-0.537-1.568-1.341c-0.063-0.803 0.537-1.505 1.341-1.568s1.505 0.537 1.568 1.341z"></path>
<path fill="#fff" d="M13.76 15.395c0.407 0.235 0.546 0.755 0.311 1.161s-0.755 0.546-1.161 0.311c-0.407-0.235-0.546-0.755-0.311-1.161s0.755-0.546 1.161-0.311z"></path>
<path fill="#fff" d="M14.375 17.864c0.438 0.253 0.588 0.813 0.335 1.252s-0.813 0.588-1.252 0.335c-0.438-0.253-0.588-0.813-0.335-1.252s0.813-0.588 1.252-0.335z"></path>
<path fill="#fff" d="M15.798 20.4c0.502 0.29 0.674 0.931 0.384 1.433s-0.931 0.674-1.433 0.384c-0.502-0.29-0.674-0.931-0.384-1.433s0.931-0.674 1.433-0.384z"></path>
<path fill="#fff" d="M18.439 22.61c0.72 0.416 0.966 1.336 0.551 2.056s-1.336 0.966-2.056 0.551c-0.72-0.416-0.966-1.336-0.551-2.056s1.336-0.966 2.056-0.551z"></path>
<path fill="#fff" d="M21.781 25.066c0.779 0.45 1.046 1.447 0.596 2.226s-1.447 1.046-2.226 0.596c-0.779-0.45-1.046-1.447-0.596-2.226s1.447-1.046 2.226-0.596z"></path>
<path fill="#fff" d="M26.346 26.731c0.964 0.556 1.294 1.789 0.738 2.752s-1.789 1.294-2.752 0.738c-0.964-0.556-1.294-1.789-0.738-2.752s1.789-1.294 2.752-0.738z"></path>
<path fill="#fff" d="M11.288 16.492c0.292 0.276 0.305 0.738 0.029 1.030s-0.738 0.305-1.030 0.029c-0.292-0.276-0.305-0.738-0.029-1.030s0.738-0.305 1.030-0.029z"></path>
<path fill="#fff" d="M11.309 18.672c0.315 0.298 0.329 0.795 0.031 1.11s-0.795 0.329-1.11 0.031c-0.315-0.298-0.329-0.795-0.031-1.11s0.795-0.329 1.11-0.031z"></path>
<path fill="#fff" d="M11.992 21.069c0.361 0.341 0.377 0.91 0.035 1.271s-0.91 0.377-1.271 0.035c-0.361-0.341-0.377-0.91-0.035-1.271s0.91-0.377 1.271-0.035z"></path>
<path fill="#fff" d="M13.755 23.437c0.518 0.489 0.54 1.306 0.051 1.823s-1.306 0.54-1.823 0.051c-0.518-0.489-0.54-1.306-0.051-1.823s1.306-0.54 1.823-0.051z"></path>
<path fill="#fff" d="M16.052 26.148c0.56 0.53 0.585 1.414 0.055 1.974s-1.414 0.585-1.974 0.055c-0.56-0.53-0.585-1.414-0.055-1.974s1.414-0.585 1.974-0.055z"></path>
<path fill="#fff" d="M19.528 28.442c0.693 0.655 0.723 1.748 0.068 2.441s-1.748 0.723-2.441 0.068c-0.693-0.655-0.723-1.748-0.068-2.441s1.748-0.723 2.441-0.068z"></path>
<path fill="#fff" d="M8.854 17.273c0.192 0.28 0.121 0.663-0.159 0.856s-0.663 0.121-0.856-0.159c-0.192-0.28-0.121-0.663 0.159-0.856s0.663-0.121 0.856 0.159z"></path>
<path fill="#fff" d="M8.485 19.077c0.207 0.302 0.131 0.715-0.171 0.922s-0.715 0.131-0.922-0.171c-0.207-0.302-0.131-0.715 0.171-0.922s0.715-0.131 0.922 0.171z"></path>
<path fill="#fff" d="M8.624 21.178c0.237 0.346 0.15 0.819-0.196 1.056s-0.819 0.15-1.056-0.196c-0.237-0.346-0.15-0.819 0.196-1.056s0.819-0.15 1.056 0.196z"></path>
<path fill="#fff" d="M9.66 23.446c0.341 0.496 0.215 1.174-0.281 1.515s-1.174 0.215-1.515-0.281c-0.341-0.496-0.215-1.174 0.281-1.515s1.174-0.215 1.515 0.281z"></path>
<path fill="#fff" d="M11.077 26.093c0.369 0.537 0.232 1.271-0.305 1.64s-1.271 0.232-1.64-0.305c-0.369-0.537-0.232-1.271 0.305-1.64s1.271-0.232 1.64 0.305z"></path>
<path fill="#fff" d="M13.541 28.604c0.456 0.664 0.287 1.572-0.377 2.028s-1.572 0.287-2.028-0.377c-0.456-0.664-0.287-1.572 0.377-2.028s1.572-0.287 2.028 0.377z"></path>
</svg>
