<!-- Generated by IcoMoon.io -->
<svg version="1.1" xmlns="http://www.w3.org/2000/svg" width="32" height="32" viewBox="0 0 32 32">
<title>KMD-alt</title>
<path fill="#fff" d="M16 0c-8.832 0-16 7.168-16 16s7.168 16 16 16 16-7.168 16-16-7.168-16-16-16zM23.759 23.178l-0.547 0.547c-2.404 1.006-4.805 2.018-7.212 3.016-2.407-0.998-4.808-2.010-7.212-3.016l-0.547-0.547-2.983-7.179 2.983-7.179 0.547-0.547c1.683-0.705 3.366-1.41 5.050-2.114l2.162-0.902 0.773 0.32 1.389 0.581c1.684 0.703 3.367 1.409 5.050 2.114l0.547 0.547 2.983 7.179-2.983 7.179z"></path>
<path fill="#fff" d="M16 9.64l-4.497 1.863-1.863 4.497 1.863 4.497 4.497 1.863 4.497-1.863 1.863-4.497-1.863-4.497-4.497-1.863zM19.18 19.179l-3.18 1.317-3.18-1.317-1.317-3.18 1.317-3.18 3.18-1.317 3.18 1.317 1.317 3.18-1.317 3.18z"></path>
</svg>
