<!-- Generated by IcoMoon.io -->
<svg version="1.1" xmlns="http://www.w3.org/2000/svg" width="32" height="32" viewBox="0 0 32 32">
<title>KMD</title>
<path fill="#fff" d="M27.557 5.307l-0.815-0.815c-2.507-1.049-5.014-2.101-7.522-3.149l-3.22-1.343-1.151 0.477-2.068 0.866c-2.508 1.048-5.015 2.099-7.522 3.149l-0.815 0.815-4.443 10.693 4.443 10.693 0.815 0.815c3.58 1.499 7.157 3.005 10.742 4.492 3.585-1.487 7.162-2.993 10.742-4.492l0.815-0.815 4.443-10.693-4.443-10.693zM22.698 22.698l-6.698 2.775-6.698-2.774-2.774-6.698 2.774-6.698 6.698-2.775 6.698 2.775 2.775 6.698-2.774 6.698z"></path>
<path fill="#fff" d="M16 9.302l-4.736 1.962-1.962 4.736 1.962 4.736 4.736 1.962 4.736-1.962 1.962-4.736-1.962-4.736z"></path>
</svg>
