<!-- Generated by IcoMoon.io -->
<svg version="1.1" xmlns="http://www.w3.org/2000/svg" width="32" height="32" viewBox="0 0 32 32">
<title>LSK-alt</title>
<path d="M20.199 21.7l-1.448 1.159-1.518 0.392-1.116 0.587 0.318 1.285-0.177 0.396v0.585l0.749-0.396 3.084-1.458 1.95-1.070 0.129-1.447-0.59-0.977zM14.235 23.31l-2.731-1.554-1.248-1.017-0.434 0.821 0.088 1.706 1.136 0.488 0.24 0.187 2.832 1.384 0.267 0.041 1.395 0.767 0.129 0.006v-0.694l0.159-0.354-0.3-1.211z"></path>
<path d="M16 0c-8.836 0-16 7.163-16 16s7.163 16 16 16 16-7.163 16-16c-0-8.836-7.164-16-16-16zM16.85 19.212l1.027-1.858 2.849 0.2-0.269 2.945-0.893 0.168-0.052 0.272-0.906 0.026-0.401 0.544-1.062 0.155-0.362 0.401-0.479-0.233-0.35 0.582-0.103-0.499 1.001-2.703zM15.593 21.598h-0.093l-0.583 0.272-0.272-0.673-0.725-0.285-0.233 0.091-0.103 0.272-0.337-0.104-0.57 0.298-0.272-0.453-1.126-0.565-0.070-1.673 2.657-1.168 1.146-2.263 1.49 3.794-0.91 2.458zM17.878 17.002l-0.187-0.289 0.781-1.889v-0.975l1.565-2.136 1.644-0.576-0.356 3.497v2.058l-0.155 0.272-0.259 0.251-3.033-0.213zM19.953 8.925l0.531 1.010 1.059 0.879-1.58 0.554-0.885-0.742 0.154-1.183-1.357-1.303-0.756-1.922 2.833 2.708zM16.492 5.603l1.085 2.736 1.285 1.234-0.156 1.199 0.984 0.824-1.568 2.14v1.020l-0.824 1.995 0.278 0.429-0.856 1.55-1.512-3.85-0.197-2.335 1.998-1.434 0.175-1.051-0.756-1.956-0.011-2.541 0.077 0.042zM15.564 5.3l0.272-0.129 0.227 0.011 0.012 2.987 0.745 1.927-0.136 0.813-1.888 1.356-4.95-1.625 5.718-5.34zM14.661 12.589l0.193 2.294-1.244 2.456-2.601 1.143-0.222-0.716 0.091-0.867-1.14-5.926 4.924 1.616zM22.706 23.615l-2.306 1.265-3.087 1.459-0.984 0.52-0.746-0.034-1.428-0.786-0.25-0.038-2.994-1.464-0.226-0.176-1.454-0.625-0.12-2.334 0.703-1.33 0.943-0.349 0.030 0.736-0.22 0.081 1.134 0.924 2.693 1.533 1.506 0.557 1.205-0.633 1.485-0.384 1.405-1.124 1.264-0.865-0.302-0.143 0.068-0.744 0.997 0.473 0.865 1.431-0.182 2.048z"></path>
</svg>
