<!-- Generated by IcoMoon.io -->
<svg version="1.1" xmlns="http://www.w3.org/2000/svg" width="32" height="32" viewBox="0 0 32 32">
<title>LSK</title>
<path fill="#fff" d="M21.116 6.295l-0.228 1.747 1.308 1.096 2.333-0.818-1.565-1.298-0.784-1.491-4.184-3.998 1.116 2.838z"></path>
<path fill="#fff" d="M18.089 7.205l-0.259 1.551-2.95 2.118 0.291 3.448 2.232 5.684 1.264-2.288-0.41-0.634 1.217-2.945v-1.505l2.315-3.16-1.452-1.217 0.231-1.77-1.896-1.822-1.603-4.039-0.113-0.062 0.015 3.752z"></path>
<path fill="#fff" d="M23.977 17.401l0.229-0.402v-3.039l0.526-5.163-2.429 0.851-2.311 3.154v1.439l-1.153 2.79 0.276 0.427 4.479 0.315zM16.79 24.589l0.707 0.344 0.535-0.593 1.568-0.23 0.593-0.803 1.338-0.038 0.077-0.402 1.319-0.248 0.397-4.348-4.207-0.295-1.517 2.744-1.477 3.991 0.152 0.738zM13.194 18.355l-3.924 1.724 0.103 2.471 1.663 0.835 0.401 0.669 0.841-0.44 0.497 0.153 0.153-0.401 0.344-0.134 1.070 0.421 0.401 0.994 0.86-0.402h0.138l1.344-3.629-2.2-5.603z"></path>
<path fill="#fff" d="M8.647 18.587l0.328 1.057 3.841-1.688 1.837-3.626-0.285-3.388-7.271-2.387 1.684 8.751zM17.355 8.46l0.2-1.201-1.101-2.846-0.018-4.41-0.335-0.016-0.402 0.191-8.444 7.884 7.31 2.4zM25.238 22.085l-1.472-0.698-0.1 1.098 0.445 0.211-1.866 1.278-2.075 1.659-2.193 0.567-1.779 0.935-2.223-0.822-3.977-2.264-1.674-1.364 0.325-0.12-0.045-1.087-1.392 0.514-1.038 1.964 0.177 3.446 2.147 0.923 0.334 0.26 4.421 2.161 0.37 0.056 2.108 1.16 1.102 0.050 1.452-0.768 4.558-2.155 3.405-1.868 0.269-3.024-1.277-2.113zM16.206 29.924v1.024l-0.19-0.009-2.059-1.133-0.395-0.060-4.181-2.044-0.354-0.276-1.677-0.721-0.129-2.518 0.641-1.212 1.842 1.502 4.033 2.295 2.261 0.84 0.443 1.788-0.235 0.523zM25.264 26.581l-2.879 1.58-4.555 2.153-1.107 0.585v-0.864l0.262-0.585-0.47-1.897 1.648-0.867 2.242-0.58 2.138-1.711 2.037-1.395 0.872 1.443-0.19 2.137z"></path>
</svg>
