<!-- Generated by IcoMoon.io -->
<svg version="1.1" xmlns="http://www.w3.org/2000/svg" width="32" height="32" viewBox="0 0 32 32">
<title>PIVX-alt</title>
<path d="M13.187 11.372l3.933-0.019c1.474 0 2.45 0.882 2.45 2.394 0 1.53-0.967 2.441-2.469 2.441h-3.727v5.389h1.098v-4.403h2.779c2.009 0 3.455-1.342 3.455-3.426 0-2.075-1.446-3.38-3.455-3.38h-4.065v1.005z"></path>
<path d="M12.455 13.334h4.234v0.882h-4.234z"></path>
<path d="M16 0c-8.832 0-16 7.168-16 16s7.168 16 16 16 16-7.168 16-16-7.168-16-16-16zM24.194 19.439c0 3.538-7.742 6.828-8.070 6.952l-0.124 0.053-0.124-0.053c-0.177-0.071-2.439-1.126-4.522-2.501-1.845-1.215-3.547-2.793-3.547-4.452v-11.342l8.194-1.711 8.194 1.711v11.342z"></path>
</svg>
