<!-- Generated by IcoMoon.io -->
<svg version="1.1" xmlns="http://www.w3.org/2000/svg" width="32" height="32" viewBox="0 0 32 32">
<title>PIVX</title>
<path fill="#fff" d="M15.828 0.041l-13.054 2.727v18.070c0 2.642 2.713 5.157 5.651 7.092 3.32 2.19 6.923 3.871 7.205 3.984l0.198 0.085 0.198-0.085c0.523-0.198 12.857-5.439 12.857-11.076v-18.070l-13.054-2.727zM10.18 11.111h6.745v1.406h-6.745v-1.406zM17.822 17.228h-4.427v7.014h-1.75v-8.585h5.938c2.393 0 3.934-1.451 3.934-3.889 0-2.408-1.555-3.814-3.904-3.814l-6.267 0.030v-1.6h6.476c3.201 0 5.504 2.079 5.504 5.384 0 3.32-2.303 5.459-5.504 5.459z"></path>
</svg>
