<!-- Generated by IcoMoon.io -->
<svg version="1.1" xmlns="http://www.w3.org/2000/svg" width="32" height="32" viewBox="0 0 32 32">
<title>QTUM-alt</title>
<path fill="#000" d="M32 16c0 8.837-7.163 16-16 16s-16-7.163-16-16c0-8.837 7.163-16 16-16s16 7.163 16 16z"></path>
<path fill="#fff" d="M24.613 22.115c0.268 0 0.499 0.094 0.694 0.283s0.293 0.421 0.293 0.698c0 0.266-0.098 0.496-0.293 0.69s-0.426 0.291-0.694 0.291c-0.279 0-0.513-0.097-0.702-0.291s-0.284-0.424-0.284-0.69c0-0.089 0.011-0.177 0.033-0.266s0.056-0.166 0.102-0.235l-0.002 0.003-1.723-1.48-3.529 2.527c0.022 0.044 0.036 0.086 0.042 0.125s0.008 0.080 0.008 0.125c0 0.188-0.067 0.349-0.201 0.482s-0.29 0.2-0.468 0.2c-0.167 0-0.312-0.047-0.435-0.141s-0.201-0.219-0.234-0.374h-3.746c-0.033 0.155-0.111 0.28-0.234 0.374-0.112 0.088-0.255 0.141-0.411 0.141-0.002 0-0.005 0-0.007-0h0c-0.189 0-0.351-0.067-0.485-0.2s-0.201-0.294-0.201-0.482c0-0.044 0.006-0.086 0.017-0.125s0.022-0.080 0.034-0.125l-3.094-2.211c-0.055 0.044-0.119 0.080-0.187 0.106l-0.005 0.002c-0.072 0.028-0.153 0.042-0.243 0.042-0.189 0-0.351-0.067-0.485-0.2s-0.201-0.294-0.201-0.482c0-0.122 0.031-0.233 0.092-0.333 0.060-0.098 0.142-0.177 0.239-0.231l0.003-0.002-1.187-3.608h-0.033c-0.19 0-0.351-0.067-0.485-0.199s-0.201-0.294-0.201-0.482 0.067-0.349 0.201-0.482c0.134-0.133 0.295-0.2 0.485-0.2h0.050l1.171-3.574h-0.017c-0.089-0.055-0.164-0.133-0.226-0.233-0.058-0.093-0.092-0.205-0.092-0.326 0-0.002 0-0.005 0-0.007v0c0-0.188 0.067-0.349 0.201-0.482s0.296-0.2 0.485-0.2c0.089 0 0.17 0.014 0.242 0.042 0.075 0.029 0.139 0.071 0.192 0.125v0l3.094-2.228c-0.011-0.033-0.022-0.072-0.033-0.116-0.011-0.040-0.017-0.086-0.017-0.133v-0c0-0.188 0.067-0.349 0.201-0.482s0.295-0.2 0.485-0.2c0.156 0 0.295 0.050 0.418 0.15s0.201 0.222 0.234 0.366h3.746c0.034-0.155 0.111-0.28 0.234-0.374s0.268-0.141 0.435-0.141c0.178 0 0.334 0.067 0.468 0.2s0.201 0.294 0.201 0.482c0 0.044-0.003 0.089-0.008 0.133s-0.020 0.083-0.042 0.117l0.001-0.001 3.094 2.228c0.055-0.055 0.122-0.097 0.197-0.124l0.004-0.001c0.070-0.026 0.15-0.041 0.234-0.042h0c0.189 0 0.351 0.067 0.485 0.199s0.201 0.294 0.201 0.482c0 0.122-0.031 0.233-0.092 0.333s-0.137 0.177-0.226 0.233l1.171 3.591h0.050c0.178 0 0.334 0.067 0.468 0.199s0.201 0.294 0.201 0.482-0.067 0.349-0.201 0.482c-0.134 0.133-0.29 0.199-0.468 0.199h-0.050l-1.338 4.106 1.739 1.496c0.083-0.073 0.18-0.132 0.286-0.172l0.006-0.002c0.1-0.037 0.215-0.058 0.335-0.058 0.003 0 0.006 0 0.009 0h-0zM22.155 12.091l-0.217 3.308c0.114 0.046 0.211 0.11 0.293 0.191l-0-0c0.084 0.083 0.137 0.186 0.159 0.308h0.569c0.022-0.089 0.059-0.167 0.11-0.234l-0.001 0.002c0.050-0.067 0.114-0.122 0.192-0.166l-1.104-3.408zM21.837 11.875l-0.017-0.017c-0.056-0.011-0.112-0.039-0.167-0.083s-0.104-0.087-0.151-0.133l0 0-1.137 0.482c0 0.022 0.003 0.044 0.008 0.067s0.008 0.039 0.008 0.050c0 0.1-0.022 0.194-0.067 0.283s-0.1 0.161-0.167 0.216l1.405 2.66c0.011-0.011 0.019-0.017 0.025-0.017h0.025l0.234-3.508zM18.007 15.399l1.254-2.643c-0.065-0.054-0.121-0.117-0.165-0.188l-0.002-0.003c-0.043-0.069-0.073-0.151-0.083-0.238l-0-0.003-3.027-0.382c-0.022 0.044-0.047 0.086-0.075 0.125-0.029 0.040-0.059 0.075-0.092 0.108l-0 0 1.873 3.242c0.033-0.011 0.067-0.019 0.1-0.025s0.067-0.008 0.1-0.008c0.022 0 0.045 0.003 0.067 0.008s0.039 0.008 0.050 0.008zM19.562 12.905l-1.238 2.643c0.054 0.043 0.099 0.096 0.132 0.155l0.001 0.003c0.034 0.061 0.061 0.125 0.084 0.191h2.525c0.011-0.067 0.033-0.13 0.067-0.191 0.035-0.062 0.080-0.115 0.133-0.157l0.001-0.001-1.405-2.66c-0.025 0.009-0.055 0.017-0.087 0.024l-0.005 0.001c-0.022 0.005-0.048 0.008-0.075 0.008h-0c-0.024-0-0.047-0.003-0.069-0.009l0.002 0c-0.020-0.005-0.043-0.008-0.067-0.008h-0zM17.405 15.582l-1.873-3.242c-0.033 0-0.064 0.003-0.092 0.008-0.027 0.005-0.057 0.008-0.088 0.008-0.001 0-0.003 0-0.004 0h0c-0.033 0-0.064-0.003-0.092-0.008-0.022-0.005-0.048-0.008-0.075-0.008h-0l-1.89 3.242c0.045 0.044 0.084 0.092 0.117 0.141s0.056 0.108 0.067 0.175h3.746c0.022-0.067 0.047-0.125 0.075-0.175s0.064-0.097 0.109-0.141zM13.006 15.416l1.873-3.242c-0.033-0.033-0.063-0.068-0.090-0.106l-0.002-0.002c-0.029-0.041-0.054-0.087-0.074-0.137l-0.002-0.005-3.027 0.399c-0.011 0.090-0.041 0.172-0.085 0.244l0.001-0.002c-0.046 0.074-0.102 0.137-0.166 0.19l-0.001 0.001 1.254 2.643c0.022 0 0.045-0.003 0.067-0.008 0.020-0.005 0.043-0.008 0.067-0.008h0c0.034 0 0.064 0.003 0.092 0.008s0.059 0.014 0.092 0.025zM12.387 15.549l-1.238-2.643c-0.024 0-0.047 0.003-0.069 0.009l0.002-0c-0.020 0.005-0.043 0.008-0.067 0.008h-0c-0.034 0-0.064-0.003-0.092-0.008-0.022-0.005-0.048-0.008-0.075-0.008h-0l-1.405 2.66c0.056 0.044 0.1 0.094 0.134 0.149s0.061 0.116 0.084 0.183h2.509c0.011-0.078 0.036-0.144 0.075-0.2 0.041-0.057 0.088-0.106 0.141-0.148l0.002-0.001zM9.661 16.23c-0.022 0.067-0.050 0.128-0.084 0.183s-0.078 0.105-0.134 0.149l1.405 2.677c0.022-0.011 0.047-0.017 0.075-0.017h0.209l1.254-2.643c-0.054-0.043-0.101-0.092-0.141-0.147l-0.002-0.002c-0.039-0.055-0.070-0.122-0.092-0.199h-2.492zM12.688 16.729l-1.254 2.643c0.065 0.054 0.121 0.117 0.165 0.188l0.002 0.003c0.043 0.069 0.073 0.151 0.083 0.238l0 0.003 3.027 0.382c0.022-0.044 0.047-0.089 0.075-0.133s0.059-0.083 0.092-0.116l-1.873-3.225c-0.024 0.012-0.052 0.020-0.082 0.025l-0.002 0c-0.030 0.005-0.065 0.008-0.1 0.008h-0c-0.024-0-0.047-0.003-0.069-0.009l0.002 0c-0.020-0.005-0.043-0.008-0.067-0.008h-0zM13.29 16.546l1.873 3.225v0.017c0.033-0.011 0.064-0.019 0.092-0.025s0.059-0.008 0.092-0.008c0.034 0 0.067 0.003 0.1 0.008s0.061 0.008 0.084 0.008l1.873-3.225c-0.043-0.042-0.081-0.088-0.115-0.138l-0.002-0.003c-0.033-0.050-0.057-0.109-0.067-0.172l-0-0.003h-3.746c-0.011 0.067-0.033 0.125-0.067 0.175s-0.072 0.097-0.117 0.141zM18.007 16.729c-0.018 0.001-0.036 0.004-0.052 0.008l0.002-0c-0.023 0.005-0.049 0.008-0.077 0.008-0.002 0-0.005-0-0.007-0h0c-0.033 0-0.064-0.003-0.092-0.008-0.037-0.008-0.068-0.016-0.098-0.027l0.005 0.002-1.856 3.225c0.034 0.033 0.061 0.072 0.084 0.116l0.067 0.133 3.044-0.382c0.011-0.089 0.036-0.169 0.075-0.241 0.042-0.075 0.095-0.138 0.158-0.19l0.001-0.001-1.254-2.643zM18.308 16.579l1.254 2.643h0.209c0.028 0 0.053 0.006 0.075 0.017l1.438-2.693c-0.055-0.033-0.1-0.078-0.133-0.131l-0.001-0.002c-0.032-0.052-0.060-0.113-0.082-0.176l-0.002-0.006h-2.525c-0.022 0.078-0.053 0.144-0.092 0.199-0.041 0.057-0.088 0.107-0.141 0.149l-0.001 0.001zM21.368 11.326c-0.001-0.015-0.004-0.030-0.008-0.043l0 0.001c-0.005-0.016-0.008-0.035-0.008-0.055 0-0.001 0-0.002 0-0.003v0c0-0.044 0.006-0.089 0.017-0.133s0.022-0.083 0.034-0.116l-3.077-2.228c-0.011 0-0.017 0.003-0.017 0.008v0.008l1.268 2.803c0.018-0.007 0.035-0.010 0.053-0.010h0.067c0.111 0 0.212 0.025 0.301 0.075 0.091 0.051 0.169 0.115 0.233 0.19l0.001 0.001 1.137-0.499zM17.622 8.865l-1.739 2.394c0.034 0.044 0.064 0.094 0.092 0.15s0.042 0.116 0.042 0.183l3.044 0.399c0.025-0.061 0.053-0.113 0.085-0.161l-0.002 0.003c0.034-0.050 0.078-0.092 0.134-0.125l-1.271-2.81c-0 0-0 0-0 0-0.024 0-0.047 0.003-0.069 0.009l0.002-0c-0.020 0.005-0.043 0.008-0.067 0.008h-0c-0.001 0-0.002 0-0.003 0-0.043 0-0.085-0.006-0.125-0.017l0.003 0.001c-0.014-0.005-0.056-0.017-0.098-0.027l-0.027-0.006zM13.475 8.4c-0.010 0.053-0.027 0.101-0.051 0.144l0.001-0.002c-0.028 0.048-0.056 0.089-0.086 0.128l0.002-0.003 1.756 2.377v0.017c0.033-0.022 0.072-0.036 0.117-0.041 0.040-0.005 0.087-0.008 0.134-0.008h0c0.045 0 0.086 0.003 0.125 0.008s0.075 0.014 0.109 0.025l1.773-2.377c-0.030-0.039-0.058-0.082-0.081-0.128l-0.002-0.005c-0.020-0.038-0.037-0.082-0.049-0.128l-0.001-0.005h-3.746zM12.822 8.915c-0.024-0-0.047-0.003-0.069-0.009l0.002 0c-0.015-0.004-0.032-0.007-0.050-0.008l-0.001-0-1.271 2.81c0.045 0.033 0.084 0.075 0.117 0.125s0.061 0.102 0.084 0.158l3.044-0.399c0.011-0.067 0.028-0.127 0.050-0.183 0.024-0.058 0.058-0.108 0.1-0.149l0-0-1.756-2.394c-0.033 0.011-0.072 0.022-0.117 0.033-0.040 0.011-0.086 0.017-0.134 0.017h-0zM12.387 8.749l-3.094 2.228c0.011 0.033 0.022 0.069 0.033 0.108s0.017 0.080 0.017 0.125v0.067c0 0.022-0.006 0.039-0.017 0.050l1.154 0.499c0.056-0.078 0.131-0.141 0.226-0.191 0.088-0.047 0.193-0.075 0.304-0.075 0.002 0 0.004 0 0.006 0h0.058c0.017 0 0.036 0.005 0.059 0.017l1.271-2.81c-0.011 0-0.017-0.003-0.017-0.008v-0.008zM9.193 11.642c-0.038 0.048-0.082 0.090-0.132 0.123l-0.002 0.001c-0.053 0.037-0.114 0.068-0.179 0.090l-0.005 0.001 0.251 3.541h0.033l1.405-2.66c-0.077-0.054-0.137-0.128-0.174-0.213l-0.001-0.003c-0.036-0.078-0.058-0.169-0.059-0.266v-0.067c0-0.022 0.005-0.044 0.017-0.067l-1.154-0.482zM8.557 20.037l0.234-3.325h-0.017c-0.105-0.047-0.194-0.112-0.267-0.191l-0-0c-0.075-0.080-0.133-0.177-0.166-0.286l-0.001-0.005h-0.602c-0.022 0.089-0.059 0.167-0.11 0.234l0.001-0.002c-0.050 0.067-0.114 0.122-0.192 0.166l1.12 3.408zM8.34 15.898c0.034-0.114 0.092-0.211 0.168-0.291l-0 0c0.078-0.082 0.173-0.147 0.279-0.189l0.005-0.002-0.234-3.325-1.104 3.392c0.071 0.049 0.132 0.107 0.183 0.173l0.001 0.002c0.056 0.072 0.089 0.152 0.1 0.241h0.602zM8.875 20.27c0.067 0.022 0.125 0.050 0.176 0.083s0.098 0.078 0.142 0.133l1.154-0.482c-0.009-0.017-0.016-0.037-0.017-0.058v-0.059c0-0.1 0.019-0.194 0.059-0.283s0.099-0.162 0.174-0.215l0.002-0.001-1.405-2.66h-0.033l-0.251 3.541zM9.333 20.799c0.007 0.018 0.011 0.035 0.011 0.053v0.067c0 0.044-0.006 0.089-0.017 0.133s-0.022 0.083-0.033 0.116l3.094 2.211 0.017-0.017-1.271-2.81c-0.022 0.011-0.045 0.017-0.067 0.017h-0.067c-0.111 0-0.212-0.025-0.301-0.075-0.091-0.051-0.169-0.115-0.233-0.19l-0.001-0.001-1.131 0.496zM12.705 23.229c0.018-0.001 0.036-0.004 0.052-0.008l-0.002 0c0.020-0.005 0.043-0.008 0.067-0.008h0c0.045 0 0.089 0.006 0.134 0.017s0.084 0.022 0.117 0.033l1.455-1.995 0.301-0.399c-0.040-0.048-0.073-0.103-0.099-0.162l-0.002-0.004c-0.021-0.052-0.039-0.114-0.049-0.178l-0.001-0.005-3.044-0.382c-0.025 0.061-0.053 0.113-0.086 0.161l0.002-0.003c-0.033 0.050-0.072 0.092-0.117 0.125l1.271 2.809zM15.603 21.057c-0.035 0.017-0.076 0.030-0.119 0.035l-0.002 0c-0.040 0.005-0.087 0.008-0.134 0.008s-0.094-0.003-0.139-0.009l0.005 0.001c-0.044-0.005-0.084-0.020-0.118-0.042l0.001 0.001-1.756 2.411c0.034 0.033 0.061 0.075 0.084 0.125 0.019 0.040 0.036 0.087 0.049 0.135l0.001 0.006h3.746c0.011-0.044 0.028-0.089 0.050-0.133s0.050-0.089 0.084-0.133l-1.752-2.405zM18.007 23.229l0.034-0.1 1.221-2.71c-0.041-0.041-0.080-0.084-0.115-0.13l-0.002-0.003c-0.033-0.043-0.061-0.093-0.082-0.145l-0.002-0.004-3.044 0.382c0 0.067-0.014 0.127-0.042 0.183s-0.064 0.111-0.109 0.166l1.756 2.394c0.045-0.011 0.086-0.022 0.125-0.033s0.081-0.017 0.125-0.017c0.022 0 0.045 0.003 0.067 0.008s0.045 0.008 0.067 0.008zM18.325 23.379l3.378-2.444-1.472-0.632v0.017c-0.064 0.075-0.142 0.136-0.23 0.181l-0.004 0.002c-0.089 0.044-0.189 0.067-0.301 0.067h-0.067c-0.022 0-0.039-0.006-0.050-0.017l-1.238 2.726-0.033 0.083v0.017h0.017zM20.365 20.004l1.489 0.648-0.251-3.94h-0.034l-1.422 2.677c0.067 0.067 0.123 0.141 0.167 0.224 0.042 0.078 0.067 0.17 0.067 0.268 0 0.002 0 0.004-0 0.007v-0c0 0.022-0.003 0.042-0.008 0.058s-0.008 0.036-0.008 0.058zM21.937 16.696l0.217 3.342 1.104-3.408c-0.076-0.043-0.14-0.099-0.191-0.165l-0.001-0.001c-0.049-0.066-0.087-0.144-0.108-0.228l-0.001-0.004h-0.585c-0.022 0.112-0.075 0.208-0.15 0.283l-0 0c-0.078 0.078-0.173 0.139-0.284 0.183z"></path>
</svg>
