<!-- Generated by IcoMoon.io -->
<svg version="1.1" xmlns="http://www.w3.org/2000/svg" width="32" height="32" viewBox="0 0 32 32">
<title>QTUM</title>
<path fill="#fff" d="M28.984 25.1c0.401 0 0.749 0.142 1.041 0.425s0.439 0.633 0.439 1.050c0 0.4-0.146 0.746-0.439 1.038s-0.64 0.438-1.041 0.438c-0.418 0-0.769-0.146-1.054-0.438s-0.427-0.637-0.427-1.038c0-0.133 0.017-0.267 0.050-0.4s0.084-0.25 0.151-0.35l-2.584-2.225-5.293 3.8c0.033 0.067 0.054 0.129 0.063 0.187s0.013 0.121 0.013 0.188c0 0.283-0.1 0.525-0.301 0.725s-0.435 0.3-0.702 0.3c-0.251 0-0.468-0.071-0.652-0.212s-0.301-0.329-0.351-0.563h-5.619c-0.050 0.233-0.167 0.421-0.351 0.563s-0.393 0.212-0.627 0.212c-0.284 0-0.527-0.1-0.727-0.3s-0.301-0.442-0.301-0.725c0-0.067 0.008-0.129 0.025-0.188s0.033-0.121 0.050-0.187l-4.641-3.325c-0.083 0.066-0.178 0.121-0.281 0.16l-0.007 0.003c-0.109 0.042-0.23 0.062-0.364 0.062-0.284 0-0.527-0.1-0.728-0.3s-0.301-0.442-0.301-0.725c0-0.183 0.046-0.35 0.138-0.5 0.090-0.147 0.213-0.266 0.359-0.348l0.005-0.003-1.781-5.425h-0.050c-0.284 0-0.527-0.1-0.728-0.3s-0.301-0.442-0.301-0.725 0.1-0.525 0.301-0.725c0.201-0.2 0.443-0.3 0.728-0.3h0.075l1.756-5.375h-0.025c-0.134-0.083-0.247-0.2-0.339-0.35s-0.138-0.317-0.138-0.5c0-0.283 0.1-0.525 0.301-0.725s0.443-0.3 0.728-0.3c0.134 0 0.255 0.021 0.364 0.063s0.205 0.104 0.288 0.187l4.641-3.35c-0.017-0.050-0.034-0.108-0.050-0.175-0.016-0.060-0.025-0.129-0.025-0.2v-0c0-0.283 0.1-0.525 0.301-0.725s0.443-0.3 0.727-0.3c0.234 0 0.443 0.075 0.627 0.225s0.301 0.333 0.351 0.55h5.619c0.050-0.233 0.167-0.421 0.351-0.563s0.401-0.212 0.652-0.212c0.268 0 0.502 0.1 0.702 0.3s0.301 0.442 0.301 0.725c0 0.067-0.004 0.133-0.013 0.2s-0.030 0.125-0.064 0.176l0.001-0.001 4.641 3.35c0.083-0.082 0.183-0.146 0.295-0.186l0.006-0.002c0.104-0.039 0.225-0.062 0.351-0.063h0c0.284 0 0.527 0.1 0.728 0.3s0.301 0.442 0.301 0.725c0 0.183-0.046 0.35-0.138 0.5s-0.205 0.267-0.339 0.35l1.756 5.4h0.075c0.268 0 0.502 0.1 0.702 0.3s0.301 0.442 0.301 0.725-0.1 0.525-0.301 0.725c-0.201 0.2-0.435 0.3-0.702 0.3h-0.075l-2.007 6.175 2.609 2.25c0.124-0.11 0.27-0.199 0.429-0.259l0.010-0.003c0.159-0.058 0.33-0.088 0.514-0.088zM25.296 10.025l-0.326 4.975c0.167 0.067 0.314 0.163 0.439 0.288s0.205 0.279 0.238 0.462h0.853c0.033-0.133 0.088-0.25 0.163-0.35s0.172-0.183 0.288-0.25l-1.656-5.125zM24.819 9.7l-0.025-0.025c-0.084-0.017-0.167-0.058-0.251-0.125-0.083-0.066-0.156-0.131-0.226-0.2l0 0-1.706 0.725c0 0.033 0.004 0.067 0.013 0.1s0.013 0.058 0.013 0.075c0 0.001 0 0.002 0 0.004 0 0.154-0.037 0.299-0.103 0.427l0.002-0.005c-0.067 0.133-0.151 0.242-0.251 0.325l2.107 4c0.017-0.017 0.029-0.025 0.038-0.025h0.038l0.351-5.275zM19.074 15l1.882-3.975c-0.098-0.081-0.181-0.176-0.248-0.283l-0.003-0.005c-0.065-0.104-0.109-0.227-0.125-0.358l-0-0.004-4.541-0.575c-0.033 0.067-0.071 0.129-0.113 0.188s-0.088 0.113-0.138 0.163l2.81 4.875c0.050-0.017 0.1-0.029 0.151-0.037 0.045-0.008 0.097-0.012 0.151-0.013h0c0.034 0 0.067 0.004 0.1 0.013s0.059 0.012 0.075 0.012zM21.408 11.25l-1.857 3.975c0.082 0.065 0.149 0.144 0.199 0.234l0.002 0.004c0.050 0.092 0.092 0.188 0.125 0.287h3.788c0.017-0.1 0.050-0.196 0.1-0.287 0.052-0.094 0.119-0.173 0.199-0.236l0.002-0.001-2.107-4c-0.050 0.017-0.096 0.029-0.138 0.037s-0.079 0.013-0.113 0.013c-0.036-0-0.070-0.005-0.103-0.013l0.003 0.001c-0.030-0.008-0.065-0.012-0.1-0.012h-0zM18.171 15.275l-2.81-4.875c-0.050 0-0.096 0.004-0.138 0.013-0.040 0.008-0.085 0.012-0.132 0.012-0.002 0-0.004 0-0.006-0h0c-0.050 0-0.096-0.004-0.138-0.012-0.034-0.007-0.073-0.012-0.113-0.013h-0l-2.835 4.875c0.067 0.067 0.125 0.137 0.176 0.212s0.084 0.163 0.1 0.262h5.619c0.034-0.1 0.071-0.187 0.113-0.262 0.046-0.081 0.101-0.151 0.163-0.212l0-0zM11.573 15.025l2.81-4.875c-0.050-0.050-0.096-0.104-0.138-0.163-0.043-0.061-0.081-0.131-0.111-0.206l-0.002-0.007-4.541 0.6c-0.016 0.136-0.061 0.259-0.128 0.366l0.002-0.004c-0.070 0.111-0.153 0.206-0.249 0.286l-0.002 0.002 1.882 3.975c0.033 0 0.067-0.004 0.1-0.012s0.067-0.013 0.1-0.013c0.050 0 0.096 0.004 0.138 0.013 0.055 0.011 0.101 0.024 0.146 0.040l-0.008-0.002zM10.645 15.225l-1.857-3.975c-0.033 0-0.067 0.004-0.1 0.012-0.030 0.008-0.065 0.012-0.1 0.013h-0c-0.050 0-0.096-0.004-0.138-0.013-0.034-0.007-0.073-0.012-0.113-0.012h-0l-2.107 4c0.080 0.063 0.146 0.137 0.199 0.221l0.002 0.004c0.050 0.083 0.092 0.175 0.125 0.275h3.763c0.017-0.117 0.054-0.217 0.113-0.3 0.061-0.086 0.132-0.16 0.211-0.223l0.002-0.002zM6.556 16.25c-0.035 0.105-0.078 0.196-0.129 0.281l0.003-0.006c-0.054 0.088-0.121 0.162-0.199 0.224l-0.002 0.001 2.107 4.025c0.032-0.016 0.069-0.025 0.109-0.025 0.001 0 0.003 0 0.004 0h0.313l1.882-3.975c-0.082-0.065-0.152-0.139-0.211-0.222l-0.002-0.003c-0.059-0.083-0.105-0.183-0.138-0.3h-3.738zM11.097 17l-1.882 3.975c0.098 0.081 0.181 0.176 0.248 0.283l0.003 0.005c0.067 0.108 0.109 0.229 0.125 0.363l4.541 0.575c0.033-0.067 0.071-0.133 0.113-0.2s0.087-0.123 0.138-0.175l-0 0-2.81-4.85c-0.034 0.017-0.075 0.029-0.125 0.037-0.045 0.008-0.097 0.012-0.151 0.013h-0c-0.033 0-0.067-0.004-0.1-0.013-0.030-0.008-0.065-0.012-0.1-0.012v0zM12 16.725l2.81 4.85v0.025c0.050-0.017 0.096-0.029 0.138-0.038 0.040-0.008 0.086-0.013 0.133-0.013 0.002 0 0.004 0 0.006 0h-0c0.050 0 0.1 0.004 0.151 0.013s0.092 0.013 0.125 0.013l2.81-4.85c-0.064-0.064-0.122-0.133-0.172-0.208l-0.003-0.005c-0.050-0.075-0.084-0.163-0.1-0.262h-5.619c-0.017 0.1-0.050 0.187-0.1 0.262s-0.109 0.146-0.176 0.212zM19.075 17.001c-0.028 0.002-0.054 0.006-0.078 0.012l0.003-0.001c-0.035 0.008-0.074 0.013-0.115 0.013-0.004 0-0.007-0-0.011-0h0.001c-0.050 0-0.096-0.004-0.138-0.013-0.055-0.011-0.101-0.024-0.146-0.040l0.008 0.002-2.785 4.85c0.050 0.050 0.092 0.108 0.125 0.175l0.1 0.2 4.566-0.575c0.017-0.133 0.054-0.254 0.113-0.363 0.062-0.113 0.142-0.208 0.237-0.286l0.002-0.001-1.881-3.974zM19.526 16.775l1.882 3.975h0.314c0.042 0 0.079 0.008 0.113 0.025l2.158-4.050c-0.083-0.050-0.151-0.117-0.199-0.198l-0.001-0.003c-0.048-0.079-0.090-0.17-0.123-0.265l-0.003-0.010h-3.788c-0.033 0.117-0.079 0.217-0.138 0.3-0.061 0.086-0.132 0.16-0.211 0.223l-0.002 0.002zM24.116 8.875c-0.001-0.023-0.005-0.044-0.012-0.065l0 0.002c-0.008-0.025-0.013-0.053-0.013-0.082 0-0.002 0-0.004 0-0.005v0c0-0.071 0.009-0.14 0.026-0.206l-0.001 0.006c0.017-0.067 0.033-0.125 0.050-0.175l-4.616-3.35c-0.017 0-0.025 0.004-0.025 0.012v0.013l1.902 4.216c0.023-0.010 0.051-0.016 0.079-0.016h0.1c0.167 0 0.318 0.037 0.452 0.113 0.137 0.077 0.253 0.173 0.35 0.286l0.001 0.002 1.705-0.75zM18.497 5.175l-2.609 3.6c0.050 0.067 0.096 0.142 0.138 0.225s0.063 0.175 0.063 0.275l4.566 0.6c0.034-0.083 0.075-0.163 0.125-0.237 0.053-0.077 0.12-0.14 0.198-0.186l0.003-0.002-1.907-4.225c-0.033 0-0.067 0.004-0.1 0.013-0.030 0.008-0.065 0.012-0.1 0.013h-0c-0.001 0-0.003 0-0.005 0-0.065 0-0.129-0.009-0.188-0.026l0.005 0.001c-0.058-0.017-0.121-0.033-0.188-0.050zM12.276 4.475c-0.017 0.083-0.042 0.154-0.075 0.212s-0.075 0.121-0.125 0.188l2.634 3.575v0.025c0.050-0.033 0.109-0.054 0.175-0.062 0.060-0.008 0.13-0.012 0.201-0.013h0c0.067 0 0.13 0.004 0.188 0.013 0.062 0.008 0.117 0.022 0.17 0.039l-0.007-0.002 2.659-3.575c-0.045-0.058-0.086-0.124-0.122-0.193l-0.003-0.007c-0.030-0.057-0.055-0.124-0.074-0.193l-0.002-0.007h-5.619zM11.297 5.25c-0.033 0-0.067-0.004-0.1-0.013-0.022-0.007-0.048-0.011-0.074-0.013l-0.001-0-1.907 4.225c0.067 0.050 0.125 0.113 0.176 0.188s0.092 0.154 0.125 0.237l4.566-0.6c0.017-0.104 0.043-0.196 0.079-0.284l-0.003 0.009c0.036-0.088 0.087-0.163 0.15-0.225l0-0-2.634-3.6c-0.050 0.017-0.109 0.033-0.176 0.050-0.060 0.016-0.129 0.025-0.201 0.025h-0zM10.645 5l-4.641 3.35c0.017 0.050 0.034 0.104 0.050 0.163s0.025 0.121 0.025 0.188v0.1c0 0.033-0.008 0.058-0.025 0.075l1.731 0.75c0.084-0.117 0.197-0.212 0.339-0.288 0.132-0.071 0.289-0.113 0.456-0.113 0.003 0 0.006 0 0.009 0h0.087c0.025 0 0.054 0.008 0.088 0.025l1.907-4.225c-0.017 0-0.025-0.004-0.025-0.013v-0.012zM5.853 9.35c-0.050 0.067-0.117 0.129-0.201 0.188-0.079 0.056-0.171 0.102-0.268 0.135l-0.008 0.002 0.376 5.325h0.050l2.107-4c-0.115-0.082-0.205-0.192-0.261-0.32l-0.002-0.005c-0.059-0.133-0.088-0.267-0.088-0.4v-0.1c0-0.033 0.008-0.067 0.025-0.1l-1.731-0.725zM4.9 21.975l0.351-5h-0.025c-0.157-0.071-0.291-0.168-0.401-0.287l-0.001-0.001c-0.113-0.12-0.2-0.267-0.249-0.43l-0.002-0.008h-0.903c-0.033 0.133-0.088 0.25-0.163 0.35s-0.171 0.183-0.288 0.25l1.681 5.125zM4.574 15.75c0.051-0.171 0.138-0.317 0.251-0.438l-0.001 0.001c0.117-0.125 0.259-0.221 0.426-0.287l-0.351-5-1.656 5.1c0.1 0.067 0.192 0.154 0.276 0.262 0.079 0.1 0.133 0.224 0.15 0.359l0 0.004h0.903zM5.377 22.325c0.1 0.033 0.188 0.075 0.263 0.125s0.146 0.117 0.213 0.2l1.731-0.725c-0.017-0.033-0.025-0.062-0.025-0.088v-0.087c0-0.002 0-0.004 0-0.005 0-0.152 0.032-0.296 0.090-0.426l-0.003 0.007c0.058-0.133 0.148-0.243 0.261-0.324l0.002-0.002-2.107-4h-0.050l-0.376 5.325zM6.064 23.121c0.011 0.026 0.016 0.053 0.016 0.079v0.1c-0 0.071-0.009 0.14-0.026 0.206l0.001-0.006c-0.017 0.067-0.034 0.125-0.050 0.175l4.641 3.325 0.025-0.025-1.907-4.225c-0.033 0.017-0.067 0.025-0.1 0.025h-0.1c-0.167 0-0.318-0.038-0.452-0.113-0.137-0.077-0.253-0.173-0.35-0.286l-0.001-0.002-1.697 0.746zM11.121 26.774c0.025-0.002 0.050-0.006 0.076-0.012 0.034-0.008 0.067-0.013 0.1-0.013 0.067 0 0.134 0.008 0.201 0.025s0.125 0.033 0.176 0.050l2.183-3 0.451-0.6c-0.067-0.083-0.117-0.167-0.15-0.25-0.032-0.079-0.058-0.171-0.074-0.267l-0.001-0.008-4.566-0.575c-0.034 0.083-0.075 0.163-0.125 0.237-0.049 0.073-0.107 0.135-0.174 0.186l-0.002 0.001 1.906 4.224zM15.468 23.509c-0.061 0.028-0.121 0.046-0.182 0.053s-0.13 0.012-0.201 0.012-0.14-0.005-0.209-0.013l0.008 0.001c-0.066-0.007-0.126-0.030-0.177-0.063l0.002 0.001-2.634 3.625c0.052 0.053 0.094 0.115 0.124 0.184l0.002 0.004c0.033 0.075 0.059 0.146 0.075 0.212h5.619c0.017-0.067 0.042-0.133 0.075-0.2s0.075-0.133 0.125-0.2l-2.628-3.616zM19.074 26.775l0.050-0.15 1.831-4.075c-0.062-0.061-0.119-0.127-0.172-0.196l-0.003-0.005c-0.049-0.065-0.091-0.139-0.123-0.218l-0.002-0.007-4.566 0.575c0 0.1-0.021 0.192-0.063 0.275-0.049 0.095-0.103 0.177-0.165 0.252l0.002-0.003 2.634 3.6c0.067-0.017 0.13-0.033 0.188-0.050s0.121-0.025 0.188-0.025c0.033 0 0.067 0.004 0.1 0.013s0.067 0.013 0.1 0.013zM19.551 27l5.068-3.675-2.208-0.95v0.025c-0.096 0.113-0.213 0.205-0.345 0.272l-0.006 0.003c-0.134 0.067-0.284 0.1-0.452 0.1h-0.1c-0.033 0-0.058-0.008-0.075-0.025l-1.857 4.1-0.050 0.125v0.025h0.025zM22.612 21.925l2.233 0.975-0.376-5.925h-0.050l-2.132 4.025c0.1 0.1 0.184 0.212 0.251 0.337s0.1 0.263 0.1 0.413c0 0.033-0.004 0.062-0.013 0.087s-0.013 0.053-0.013 0.082c0 0.002 0 0.004 0 0.005v-0zM24.97 16.95l0.326 5.025 1.656-5.125c-0.115-0.064-0.211-0.148-0.287-0.248l-0.002-0.002c-0.075-0.1-0.13-0.217-0.163-0.35h-0.878c-0.033 0.167-0.109 0.308-0.226 0.425s-0.259 0.208-0.426 0.275z"></path>
</svg>
