<!-- Generated by IcoMoon.io -->
<svg version="1.1" xmlns="http://www.w3.org/2000/svg" width="32" height="32" viewBox="0 0 32 32">
<title>RDD-alt</title>
<path fill="#fff" d="M16.014 0c-8.832 0-16 7.168-16 16s7.168 16 16 16 16-7.168 16-16c0-8.832-7.168-16-16-16zM18.568 7.986c-0.169 0.254-0.31 0.522-0.423 0.804-0.183-0.099-0.339-0.183-0.451-0.226-0.056-0.028-0.127-0.028-0.183 0s-0.113 0.071-0.127 0.141l-0.212 0.578c-0.042 0.113 0 0.226 0.099 0.282 0.423 0.254 1.552 0.959 2.61 2.032 1.058 1.058 1.792 2.258 2.074 2.737 0.028 0.056 0.085 0.099 0.155 0.113h0.056c0.042 0 0.099-0.014 0.141-0.042l0.564-0.395c0.099-0.071 0.127-0.183 0.085-0.282-0.028-0.085-0.085-0.198-0.155-0.325 0.296-0.085 0.564-0.198 0.832-0.339 0.056 0.169 0.113 0.353 0.169 0.522l-5.884 5.192-1.227-11.259c0.663 0.085 1.284 0.24 1.877 0.466zM17.608 19.048l-3.81 3.372-3.838-8.042 6.899-2.187 0.748 6.857zM15.605 7.45c0.254 0 0.508 0.014 0.748 0.028l0.48 4.374-7.012 2.229-1.34-2.794c1.524-2.314 4.148-3.838 7.125-3.838zM8.268 11.626l1.227 2.568-2.356 0.748c0.141-1.213 0.536-2.328 1.129-3.316zM7.069 15.986c0-0.226 0.014-0.466 0.028-0.691l2.54-0.804 3.908 8.169-1.326 1.171c-3.034-1.312-5.15-4.332-5.15-7.845zM12.571 23.972l1.129-1.002 0.705 1.467c-0.635-0.099-1.256-0.254-1.834-0.466zM15.605 24.522c-0.268 0-0.536-0.014-0.804-0.042l-0.832-1.75 3.697-3.273 0.508 4.67c-0.818 0.254-1.679 0.395-2.568 0.395zM18.483 24.014l-0.522-4.825 5.926-5.249c0.155 0.649 0.254 1.34 0.254 2.046 0 3.697-2.356 6.843-5.658 8.028zM21.757 12.981h-0.085c-0.339-0.494-0.818-1.143-1.397-1.721-0.621-0.621-1.256-1.101-1.735-1.425 0.056-1.623 1.481-2.935 3.217-2.935 1.778 0 3.217 1.369 3.217 3.048 0 1.665-1.439 3.034-3.217 3.034z"></path>
</svg>
