<!-- Generated by IcoMoon.io -->
<svg version="1.1" xmlns="http://www.w3.org/2000/svg" width="32" height="32" viewBox="0 0 32 32">
<title>RDD</title>
<path fill="#fff" d="M23.577 8.056c1.044 1.044 1.891 2.187 2.497 3.076h0.169c3.175 0 5.757-2.427 5.757-5.432s-2.568-5.432-5.757-5.432c-3.104 0-5.644 2.328-5.742 5.235 0.832 0.593 1.975 1.453 3.076 2.554zM9.834 30.773c1.044 0.395 2.13 0.677 3.259 0.832l-1.242-2.61-2.018 1.778zM17.439 9.129l-0.847-7.817c-0.437-0.042-0.889-0.056-1.354-0.056-5.319 0-9.989 2.723-12.727 6.843l2.399 4.995 12.529-3.965zM12.049 28.007l6.801-6.011-1.34-12.247-12.332 3.908z"></path>
<path fill="#fff" d="M29.884 12.219c-0.099-0.31-0.198-0.635-0.31-0.945-0.466 0.254-0.959 0.466-1.481 0.607 0.127 0.254 0.226 0.451 0.282 0.593 0.085 0.183 0.014 0.395-0.155 0.508l-1.016 0.705c-0.071 0.056-0.155 0.071-0.24 0.071-0.028 0-0.056 0-0.099-0.014-0.113-0.028-0.212-0.099-0.282-0.198-0.48-0.847-1.82-3.005-3.697-4.882-1.891-1.891-3.88-3.16-4.642-3.612-0.183-0.099-0.254-0.325-0.183-0.508l0.381-1.030c0.042-0.113 0.127-0.198 0.24-0.254 0.113-0.042 0.226-0.042 0.339 0 0.198 0.085 0.466 0.212 0.804 0.409 0.183-0.522 0.437-1.002 0.748-1.453-1.072-0.395-2.187-0.677-3.358-0.832l2.187 20.12 10.483-9.284zM12.317 28.571l1.496 3.118c0.48 0.042 0.959 0.071 1.439 0.071 1.594 0 3.132-0.24 4.586-0.705l-0.903-8.339-6.617 5.855zM19.471 22.236l0.931 8.621c5.884-2.116 10.088-7.746 10.088-14.349 0-1.256-0.155-2.483-0.437-3.64l-10.582 9.369zM2.145 8.705c-1.058 1.778-1.764 3.781-2.032 5.926l4.219-1.34-2.187-4.586zM4.6 13.841l-4.543 1.439c-0.028 0.409-0.056 0.818-0.056 1.228 0 6.279 3.795 11.668 9.213 14.011l2.356-2.088-6.97-14.589z"></path>
</svg>
