<!-- Generated by IcoMoon.io -->
<svg version="1.1" xmlns="http://www.w3.org/2000/svg" width="32" height="32" viewBox="0 0 32 32">
<title>SIA-alt</title>
<path d="M20.811 16.437c-1.256-1.256-3.287-1.256-4.543 0s-1.256 3.287 0 4.543c0.409 0.409 0.889 0.677 1.397 0.818 0.466 0.127 0.959 0.127 1.002 0.127h2.131c0.24 0 0.522-0.113 0.691-0.282s0.282-0.451 0.282-0.691v-2.187c0-0.042 0-0.31-0.127-0.931-0.113-0.522-0.423-0.988-0.832-1.397z"></path>
<path d="M16 0c-8.832 0-16 7.168-16 16s7.168 16 16 16 16-7.168 16-16c0-8.832-7.168-16-16-16zM10.907 10.229v0zM23.859 23.041c0 0.24-0.141 0.508-0.31 0.691-0.169 0.169-0.423 0.296-0.663 0.296 0 0-4.459 0.014-4.769-0.014-1.199-0.113-2.413-0.649-3.316-1.566-0.282-0.282-0.536-0.593-0.734-0.931-0.959-1.538-1.058-3.457-0.296-5.079 0.395-0.861 0.254-1.891-0.409-2.624-0.028-0.028-0.042-0.056-0.071-0.085l-3.287-3.273c-0.24-0.212-0.564-0.296-0.875-0.268-0.071 0.014-0.141 0.014-0.212 0.014-0.621 0-1.115-0.494-1.115-1.115s0.494-1.115 1.115-1.115 1.115 0.494 1.115 1.115c0 0.071-0.014 0.141-0.014 0.212-0.028 0.296 0.056 0.607 0.282 0.861l3.259 3.259c0.028 0.028 0.071 0.056 0.099 0.099 0.734 0.663 1.764 0.79 2.624 0.409 1.623-0.762 3.541-0.663 5.079 0.296 0.325 0.212 0.649 0.451 0.931 0.734 0.917 0.917 1.425 2.004 1.524 3.203 0 0.042 0.056 0.353 0.056 0.564-0.014 0.212-0.014 4.317-0.014 4.317z"></path>
</svg>
