<!-- Generated by IcoMoon.io -->
<svg version="1.1" xmlns="http://www.w3.org/2000/svg" width="32" height="32" viewBox="0 0 32 32">
<title>SC</title>
<path fill="#fff" d="M5.616 5.051c0.028 0.028 0.056 0.056 0.099 0.085l-0.099-0.085zM6.18 4.501l0.085 0.085c-0.028-0.028-0.056-0.071-0.085-0.085 0-0.014 0 0 0 0z"></path>
<path fill="#fff" d="M27.005 12.459c-3.062-1.919-6.885-2.116-10.116-0.607-1.707 0.776-3.767 0.494-5.235-0.818-0.071-0.056-0.127-0.113-0.198-0.183l-6.49-6.49c-0.437-0.48-0.621-1.115-0.55-1.721 0.028-0.127 0.042-0.268 0.042-0.409-0.014-1.242-1.016-2.229-2.243-2.229s-2.215 1.002-2.215 2.215c0 1.228 0.988 2.215 2.215 2.215 0.141 0 0.282-0.014 0.409-0.042 0.621-0.042 1.256 0.127 1.75 0.55l6.519 6.519c0.056 0.056 0.099 0.113 0.141 0.169 1.312 1.467 1.58 3.527 0.804 5.235-1.524 3.217-1.326 7.055 0.607 10.116 0.409 0.663 0.903 1.284 1.467 1.848 1.82 1.82 4.233 2.892 6.617 3.104 0.621 0.056 9.51 0.028 9.51 0.028 0.48 0 0.974-0.24 1.312-0.578s0.621-0.889 0.621-1.369v-8.607c0-0.423-0.099-1.044-0.099-1.129-0.212-2.384-1.227-4.543-3.048-6.363-0.55-0.55-1.171-1.044-1.82-1.453zM27.57 19.668c0.254 1.227 0.268 1.764 0.268 1.848v4.36c0 0.48-0.212 1.044-0.55 1.383s-0.903 0.55-1.383 0.55h-4.233c-0.085 0-1.072-0.014-1.989-0.268-1.030-0.282-1.989-0.832-2.794-1.637-2.497-2.497-2.497-6.547 0-9.044s6.561-2.497 9.044 0c0.79 0.818 1.425 1.764 1.637 2.808z"></path>
</svg>
