<!-- Generated by IcoMoon.io -->
<svg version="1.1" xmlns="http://www.w3.org/2000/svg" width="32" height="32" viewBox="0 0 32 32">
<title>STEEM-alt</title>
<path d="M16 0c-8.832 0-16 7.168-16 16s7.168 16 16 16 16-7.168 16-16c0-8.832-7.168-16-16-16zM12.995 19.513c-0.099 1.016-2.455 3.414-2.695 3.245-0.268-0.071 0.72-1.693 0.353-3.048-0.423-1.58-2.949-5.658-2.949-7.45 0-1.312 2.159-3.104 2.342-3.019 0.198 0.028-0.282 1.284-0.014 2.709 0.212 1.213 3.076 5.94 2.963 7.563zM19.217 20.473c-0.113 1.298-3.132 4.346-3.443 4.148-0.339-0.099 0.917-2.159 0.452-3.894-0.536-2.004-3.767-7.21-3.767-9.51 0-1.679 2.765-3.965 2.977-3.852 0.24 0.042-0.367 1.637-0.028 3.443 0.296 1.566 3.965 7.605 3.81 9.665zM23.972 19.513c-0.085 1.016-2.455 3.414-2.695 3.245-0.268-0.071 0.72-1.693 0.353-3.048-0.423-1.58-2.949-5.658-2.949-7.45 0-1.312 2.173-3.104 2.342-3.019 0.198 0.028-0.282 1.284-0.014 2.709 0.212 1.213 3.090 5.94 2.963 7.563z"></path>
</svg>
