<!-- Generated by IcoMoon.io -->
<svg version="1.1" xmlns="http://www.w3.org/2000/svg" width="32" height="32" viewBox="0 0 32 32">
<title>STEEM</title>
<path fill="#fff" d="M5.235 3.457c-0.324-0.155-4.332 3.16-4.332 5.601 0 3.33 4.684 10.892 5.474 13.813 0.677 2.511-1.157 5.517-0.649 5.658 0.466 0.296 4.84-4.134 5.009-6.025 0.226-3.005-5.108-11.781-5.531-14.039-0.508-2.638 0.381-4.952 0.028-5.009zM15.252 0c-0.409-0.198-5.531 4.021-5.531 7.139 0 4.261 5.968 13.898 6.984 17.623 0.861 3.203-1.467 7.041-0.832 7.21 0.593 0.381 6.166-5.263 6.377-7.675 0.282-3.838-6.519-15.012-7.055-17.905-0.621-3.358 0.508-6.307 0.056-6.392zM25.594 3.457c-0.31-0.155-4.332 3.16-4.332 5.601 0 3.33 4.684 10.892 5.474 13.813 0.677 2.511-1.157 5.517-0.649 5.658 0.466 0.296 4.84-4.134 5.009-6.025 0.226-3.005-5.108-11.781-5.531-14.039-0.494-2.638 0.381-4.952 0.028-5.009z"></path>
</svg>
