<!-- Generated by IcoMoon.io -->
<svg version="1.1" xmlns="http://www.w3.org/2000/svg" width="32" height="32" viewBox="0 0 32 32">
<title>STRAT-alt</title>
<path d="M16.046 17.902c1.446-0.802 6.77-3.754 8.249-4.574-1.521-0.841-6.576-3.647-8.34-4.627-1.276 0.715-6.652 3.73-8.249 4.626 1.747 0.98 7.882 4.42 8.182 4.588 0.048 0.027 0.098 0.020 0.158-0.013z"></path>
<path d="M16.001 0c-8.837 0-16.001 7.164-16.001 16.001s7.164 16.001 16.001 16.001c8.837 0 16.001-7.164 16.001-16.001s-7.164-16.001-16.001-16.001zM7.59 16.053c0.171 0.094 8.117 4.534 8.247 4.605 0.12 0.066 0.149 0.048 0.205 0.013 0.309-0.188 8.235-4.602 8.293-4.633 0.347-0.186 0.719-0.199 0.995-0.034 0.242 0.145 0.38 0.403 0.38 0.709v1.694c0 0.679-0.538 1.019-0.741 1.146-0.313 0.198-8.253 4.653-8.316 4.687-0.18 0.097-0.418 0.201-0.699 0.201-0.192 0-0.403-0.048-0.63-0.178-0.269-0.154-8.847-4.973-8.934-5.021l0.549-0.978c0.354 0.199 8.669 4.87 8.943 5.027 0.063 0.037 0.083 0.048 0.236-0.036 0.36-0.195 7.972-4.476 8.253-4.65 0.216-0.137 0.216-0.182 0.216-0.197v-1.229c-1.45 0.803-7.78 4.339-7.964 4.45-0.291 0.177-0.757 0.323-1.325 0.013-0.135-0.073-8.083-4.514-8.251-4.607-0.481-0.265-0.757-0.725-0.757-1.263v-2.446h0c0-0.001-0-0.002-0-0.003-0-0.306 0.157-0.577 0.42-0.725 0.179-0.101 7.451-4.178 8.765-4.915 0.135-0.077 0.296-0.122 0.468-0.122 0 0 0 0 0 0v0c0.178 0 0.352 0.047 0.52 0.14 4.142 2.3 8.627 4.788 8.791 4.875 0.282 0.151 0.452 0.421 0.454 0.725 0.003 0.322-0.186 0.628-0.492 0.798-0.204 0.113-6.969 3.864-8.627 4.785-0.201 0.111-0.423 0.17-0.642 0.17-0.224-0-0.434-0.060-0.616-0.163l0.006 0.003c-0.287-0.161-5.908-3.313-7.926-4.445v1.325c0 0.164 0.101 0.238 0.176 0.28z"></path>
</svg>
