<!-- Generated by IcoMoon.io -->
<svg version="1.1" xmlns="http://www.w3.org/2000/svg" width="32" height="32" viewBox="0 0 32 32">
<title>USDT</title>
<path d="M32.015 15.192c0-2.010-5.469-3.687-12.738-4.074l-0.001-3.203h9.075v-6.665h-24.816v6.665h9.075v3.218c-7.136 0.413-12.474 2.073-12.474 4.058s5.338 3.645 12.474 4.058v11.501h6.666v-11.485c7.269-0.386 12.738-2.064 12.738-4.074zM16.076 17.172c-7.802 0-14.126-1.207-14.126-2.698 0-1.262 4.535-2.321 10.661-2.616v0.76h0.001v3.113c1.104 0.062 2.265 0.094 3.464 0.094 1.104 0 2.176-0.028 3.201-0.079v-3.899c6.259 0.277 10.925 1.347 10.925 2.628-0 1.49-6.325 2.698-14.126 2.698z"></path>
</svg>
