<!-- Generated by IcoMoon.io -->
<svg version="1.1" xmlns="http://www.w3.org/2000/svg" width="32" height="32" viewBox="0 0 32 32">
<title>USDT-alt</title>
<path d="M17.967 14.157v2.396c-0.586 0.031-1.271 0.049-1.961 0.049-0.751 0-1.497-0.021-2.237-0.063l0.103 0.005v-1.913h-0v-0.467c-3.764 0.181-6.551 0.832-6.551 1.607 0 0.916 3.886 1.658 8.681 1.658s8.681-0.742 8.681-1.658c-0-0.787-2.867-1.445-6.714-1.615z"></path>
<path d="M16-0c-8.836 0-16 7.163-16 16s7.164 16 16 16 16-7.164 16-16c0-8.837-7.164-16-16-16zM17.967 18.716v7.058h-4.096v-7.067c-4.385-0.254-7.665-1.274-7.665-2.494s3.28-2.24 7.665-2.494v-1.978h-5.576v-4.096h15.25v4.096h-5.577l0 1.968c4.467 0.238 7.828 1.268 7.828 2.503s-3.361 2.266-7.828 2.504z"></path>
</svg>
