<!-- Generated by IcoMoon.io -->
<svg version="1.1" xmlns="http://www.w3.org/2000/svg" width="34" height="32" viewBox="0 0 34 32">
<title>VEN</title>
<path fill="#000" d="M14.573 30.559l-14.499-29.531c-0.236-0.472 0.118-1.028 0.641-1.028h5.024c0.27 0 0.523 0.153 0.641 0.388l10.587 21.424c0.944 1.922 3.675 1.922 4.619 0l10.554-21.407c0.119-0.236 0.371-0.388 0.641-0.388h0.624c0.371 0 0.607 0.388 0.438 0.708l-14.65 29.834c-0.944 1.921-3.675 1.921-4.619 0z"></path>
<path fill="#fff" opacity="0.1" d="M14.573 30.559l-8.193-30.155c-0.118-0.252-0.388-0.388-0.607-0.388h-5.041c-0.556 0-0.877 0.556-0.657 1.028z"></path>
<path fill="#fff" opacity="0.1" d="M16.967 21.828l-16.893-20.8c-0.202-0.489 0.101-0.977 0.573-1.028h5.108c0.287 0.017 0.506 0.202 0.607 0.388z"></path>
</svg>
