<!-- Generated by IcoMoon.io -->
<svg version="1.1" xmlns="http://www.w3.org/2000/svg" width="32" height="32" viewBox="0 0 32 32">
<title>WAVES</title>
<path fill="#fff" d="M26.285 8.838l-7.824-7.824c-1.352-1.352-3.563-1.352-4.915 0l-7.808 7.808c-0.451 0.451-0.451 1.187 0 1.638l2.368 2.368 1.577 1.459c0.216 0.201 0.506 0.325 0.825 0.325s0.61-0.123 0.826-0.325l-0.001 0.001 3.153-2.917c0.867-0.802 2.199-0.802 3.065 0l3.154 2.917c0.216 0.201 0.506 0.325 0.825 0.325s0.609-0.123 0.826-0.325l-0.001 0.001 1.577-1.458 2.353-2.353c0.451-0.451 0.451-1.188-0-1.638z"></path>
<path fill="#fff" d="M1.284 18.726l12.261 12.262c1.351 1.351 3.562 1.351 4.914 0l12.261-12.262c2.126-2.125 0.628-2.755-0.931-4.232l-1.923-1.823c-0.462-0.438-1.183-0.433-1.651 0l-3.153 2.917c-0.867 0.802-2.198 0.802-3.065 0l-3.154-2.917c-0.216-0.201-0.506-0.325-0.825-0.325s-0.609 0.123-0.826 0.325l0.001-0.001-3.153 2.917c-0.867 0.802-2.199 0.802-3.065 0l-3.153-2.917c-0.216-0.201-0.506-0.325-0.825-0.325s-0.61 0.123-0.826 0.325l0.001-0.001-1.766 1.634c-1.63 1.508-3.342 2.201-1.121 4.421z"></path>
</svg>
