<!-- Generated by IcoMoon.io -->
<svg version="1.1" xmlns="http://www.w3.org/2000/svg" width="32" height="32" viewBox="0 0 32 32">
<title>WAVES-alt</title>
<path d="M16 0.006c-8.833 0-15.994 7.161-15.994 15.994s7.161 15.994 15.994 15.994 15.994-7.161 15.994-15.994-7.161-15.994-15.994-15.994zM9.467 11.274l4.971-4.971c0.86-0.86 2.268-0.86 3.129 0l4.981 4.981c0.287 0.287 0.287 0.756 0 1.043l-1.498 1.498-1.004 0.928c-0.137 0.128-0.322 0.207-0.525 0.207s-0.388-0.079-0.526-0.207l0 0-2.008-1.857c-0.551-0.511-1.399-0.511-1.951 0l-2.007 1.857c-0.137 0.128-0.322 0.207-0.525 0.207s-0.388-0.079-0.526-0.207l0 0-1.004-0.929-1.508-1.508c-0.287-0.287-0.287-0.756 0-1.043zM25.371 17.892l-7.806 7.806c-0.86 0.86-2.268 0.86-3.128 0l-7.806-7.805c-1.413-1.413-0.324-1.854 0.714-2.814l1.124-1.040c0.137-0.128 0.322-0.207 0.525-0.207s0.388 0.079 0.526 0.207l-0-0 2.007 1.857c0.552 0.511 1.399 0.511 1.951 0l2.007-1.857c0.137-0.128 0.322-0.207 0.525-0.207s0.388 0.079 0.526 0.207l-0-0 2.008 1.857c0.255 0.237 0.598 0.383 0.975 0.383s0.72-0.146 0.976-0.384l-0.001 0.001 2.007-1.857c0.298-0.275 0.756-0.279 1.051 0l1.224 1.16c0.992 0.94 1.946 1.341 0.593 2.694z"></path>
</svg>
