<!-- Generated by IcoMoon.io -->
<svg version="1.1" xmlns="http://www.w3.org/2000/svg" width="32" height="32" viewBox="0 0 32 32">
<title>XEM</title>
<path fill="#fff" d="M11.091 14.982c0.070-0.038 0.132-0.074 0.194-0.112 2.188-1.314 3.497-3.609 3.508-6.148l-0-0.019c0-3.495 1.825-6.613 4.755-8.31-1.065-0.122-2.299-0.193-3.55-0.193h-0.001c-5.453 0-10.879 1.355-15.691 3.917-0.226 0.12-0.242 0.147-0.259 0.178-0.038 0.065-0.049 0.089-0.045 0.208 0.064 2.050 0.302 4.005 0.701 5.9l-0.038-0.218c0.13 0.646 0.229 1.070 0.336 1.491l-0.050-0.231c1.108 2.658 3.775 4.442 6.648 4.442 1.223 0 2.431-0.313 3.494-0.904zM19.69 17.066c-0.034-0.022-0.089-0.055-0.145-0.087l-0.024-0.013-0.066-0.038c-1.035-0.572-2.238-0.882-3.455-0.882-1.224 0-2.427 0.31-3.481 0.897-0.072 0.045-0.168 0.101-0.264 0.153-1.413 0.786-3.025 1.203-4.657 1.203-1.649 0-3.285-0.44-4.727-1.257 2.674 5.989 7.107 11.15 12.605 14.639 0.132 0.084 0.223 0.121 0.544 0.121 0.291 0 0.361-0.029 0.504-0.119 1.595-1.021 2.98-2.073 4.274-3.224l-0.034 0.029c0.349-0.311 0.66-0.599 0.965-0.894l-0.010 0.010c0.952-1.252 1.476-2.799 1.476-4.36-0-2.516-1.342-4.883-3.503-6.176zM31.953 4.294c-0.017-0.029-0.033-0.056-0.259-0.177-1.399-0.765-3.050-1.495-4.765-2.088l-0.234-0.070c-0.159-0.065-0.557-0.194-0.958-0.316l-0.237-0.062c-0.33-0.053-0.712-0.084-1.1-0.085h-0c-3.937 0-7.146 3.179-7.194 7.106v0.092c0.001 2.539 1.299 4.84 3.474 6.156l0.032 0.019c0.066 0.036 0.15 0.084 0.228 0.131 2.85 1.706 4.632 4.821 4.665 8.144 3.933-5.419 6.193-11.985 6.394-18.646 0.003-0.117-0.006-0.138-0.045-0.205z"></path>
</svg>
