<!-- Generated by IcoMoon.io -->
<svg version="1.1" xmlns="http://www.w3.org/2000/svg" width="32" height="32" viewBox="0 0 32 32">
<title>XLM</title>
<path fill="#fff" d="M8.187 25.168c-0.070-0.050-0.157-0.080-0.252-0.080-0.145 0-0.274 0.071-0.352 0.181l-0.001 0.001-4.287 6.021c-0.052 0.071-0.083 0.159-0.083 0.255 0 0.239 0.194 0.433 0.433 0.433 0.147 0 0.276-0.073 0.355-0.184l0.001-0.001 4.287-6.021c0.050-0.070 0.081-0.157 0.081-0.252 0-0.145-0.071-0.274-0.181-0.352l-0.001-0.001zM9.224 27.143c-0.070-0.051-0.158-0.081-0.253-0.081-0.145 0-0.273 0.071-0.351 0.179l-0.001 0.001-2.385 3.324c-0.051 0.070-0.081 0.158-0.081 0.253 0 0.145 0.071 0.273 0.18 0.351l0.001 0.001c0.070 0.051 0.158 0.081 0.253 0.081 0.144 0 0.272-0.071 0.351-0.179l0.001-0.001 2.385-3.324c0.051-0.070 0.081-0.158 0.081-0.253 0-0.145-0.071-0.273-0.18-0.352l-0.001-0.001zM28.842 5.698c0-2.89-0.987-5.684-0.987-5.684s-3.685-0.253-6.768 1.409c-3.083 1.662-4.251 3.782-4.829 4.757s-1.782 3.059-1.782 3.059-2.637-0.048-4.721 1.108c-2.083 1.156-3.36 3.324-3.36 3.324s1.385-0.397 2.71-0.361c1.325 0.036 2.649 0.59 2.649 0.59s-0.313 0.47-0.253 1.156c0.027 0.302 0.43 0.731 0.984 1.198-0.065 0.083-0.149 0.196-0.231 0.31l-0.025 0.036c-1.978 2.795-2.43 5.875-1.009 6.881s4.176-0.445 6.154-3.239c0.063-0.089 0.125-0.179 0.184-0.269 0.504 0.317 0.935 0.527 1.204 0.514 0.711-0.036 1.325-0.783 1.325-0.783s1.355 1.716 1.698 2.583c0.343 0.867 0.47 2.421 0.47 2.421s1.517-1.788 1.997-4.43-0.696-4.512-0.696-4.512 1.337-1.638 2.71-3.3c1.373-1.662 2.577-3.878 2.577-6.768zM16.907 19.593c-1.31 1.774-3.178 2.616-4.173 1.881s-0.739-2.768 0.571-4.542c0.005-0.007 0.011-0.014 0.016-0.021 0.529 0.396 1.091 0.789 1.563 1.131 0.621 0.451 1.364 1.030 2.050 1.512-0.009 0.013-0.017 0.026-0.027 0.039zM21.918 10.503c-1.63 0-2.951-1.321-2.951-2.951s1.321-2.951 2.951-2.951c1.63 0 2.95 1.321 2.95 2.951s-1.321 2.951-2.95 2.951z"></path>
</svg>
