<!-- Generated by IcoMoon.io -->
<svg version="1.1" xmlns="http://www.w3.org/2000/svg" width="32" height="32" viewBox="0 0 32 32">
<title>XMR</title>
<path fill="#fff" d="M5.605 21.028v-13.426l10.405 10.405 10.395-10.395v13.416h4.789c0.511-1.495 0.806-3.218 0.806-5.009 0-0.005 0-0.009 0-0.014v0.001c0-8.833-7.161-15.994-15.994-15.994s-15.994 7.161-15.994 15.994c0 1.755 0.283 3.442 0.806 5.022h4.788z"></path>
<path fill="#fff" d="M22.936 24.281v-8.488l-6.984 6.984-6.935-6.935v8.439h-6.7c2.803 4.626 7.885 7.719 13.689 7.719s10.886-3.092 13.689-7.719h-6.759z"></path>
</svg>
