<!-- Generated by IcoMoon.io -->
<svg version="1.1" xmlns="http://www.w3.org/2000/svg" width="33" height="32" viewBox="0 0 33 32">
<title>XRB</title>
<path fill="#fff" d="M4.744 20.602c0 1.284-1.041 2.326-2.326 2.326s-2.326-1.041-2.326-2.326c0-1.284 1.041-2.326 2.326-2.326s2.326 1.041 2.326 2.326z"></path>
<path fill="#fff" d="M30.13 9.072c-1.26 0-2.326 1.017-2.326 2.326 0 1.841-0.291 2.326-2.326 2.326h-0.194c-1.163 0.097-2.083 1.066-2.083 2.277v0.048c0 1.792-0.339 2.229-2.326 2.229-0.097 0-0.194 0-0.242 0.048-1.163 0.145-2.083 1.114-2.083 2.277 0 1.26 1.017 2.326 2.326 2.326 1.211 0 2.229-0.969 2.277-2.132v-0.194c0-1.647 0.533-2.277 2.277-2.326h0.048c1.211 0 2.229-0.969 2.277-2.18v-0.145c0-1.696 0.533-2.326 2.326-2.326 1.26 0 2.326-1.017 2.326-2.326 0-1.211-1.017-2.229-2.277-2.229zM16.468 13.723h-0.194c-2.035 0-2.326-0.485-2.326-2.326 0-1.26-1.017-2.326-2.326-2.326-1.26 0-2.326 1.017-2.326 2.326 0 1.841-0.291 2.277-2.326 2.277h-0.194c-1.163 0.097-2.083 1.066-2.083 2.277 0 1.26 1.017 2.326 2.326 2.326 1.211 0 2.229-0.969 2.277-2.132v-0.145c0-1.696 0.533-2.326 2.326-2.326s2.326 0.63 2.326 2.277c0 1.26 1.017 2.326 2.326 2.326s2.326-1.017 2.326-2.326c-0.048-1.163-0.969-2.132-2.132-2.229v0z"></path>
</svg>
