<!-- Generated by IcoMoon.io -->
<svg version="1.1" xmlns="http://www.w3.org/2000/svg" width="32" height="32" viewBox="0 0 32 32">
<title>XRP</title>
<path fill="#fff" d="M27.689 19.687c-1.071-0.587-2.236-0.859-3.384-0.85l0.010-0.006c-1.574 0.018-2.866-1.206-2.885-2.735-0.018-1.508 1.209-2.747 2.752-2.798v-0.001l-0.003-0.001c1.168-0.006 2.349-0.303 3.426-0.924 3.219-1.858 4.277-5.896 2.363-9.021s-6.074-4.152-9.293-2.294c-3.219 1.858-4.277 5.896-2.363 9.021 0.797 1.302 0.356 2.985-0.985 3.759-1.322 0.763-3.024 0.358-3.836-0.901l-0.001 0v0.004c-0.585-0.981-1.438-1.828-2.528-2.426-3.26-1.788-7.396-0.672-9.238 2.493s-0.692 7.18 2.568 8.968c3.26 1.788 7.396 0.672 9.238-2.493 0.011-0.019 0.021-0.039 0.032-0.058v0.005l0.001 0c0.782-1.278 2.477-1.72 3.817-0.986 1.359 0.745 1.837 2.418 1.070 3.737-1.842 3.165-0.692 7.18 2.568 8.968s7.396 0.672 9.238-2.493c1.842-3.165 0.692-7.18-2.568-8.968z"></path>
</svg>
