<!-- Generated by IcoMoon.io -->
<svg version="1.1" xmlns="http://www.w3.org/2000/svg" width="32" height="32" viewBox="0 0 32 32">
<title>XZC-alt</title>
<path d="M16 32c-8.837 0-16-7.163-16-16s7.163-16 16-16 16 7.163 16 16-7.163 16-16 16zM18.907 19.357h3.615v3.162h-10.862l13.484-13.496c0.44-0.44 0.57-1.108 0.342-1.679-0.244-0.57-0.798-0.945-1.433-0.945h-16.106c-0.863 0-1.547 0.685-1.547 1.548v11.409l6.693-6.699h-3.615v-3.178h10.846l-13.468 13.496c-0.44 0.44-0.57 1.108-0.342 1.679 0.244 0.57 0.798 0.945 1.433 0.945h16.106c0.847 0 1.547-0.685 1.547-1.548v-11.393l-6.693 6.699z"></path>
</svg>
