<!-- Generated by IcoMoon.io -->
<svg version="1.1" xmlns="http://www.w3.org/2000/svg" width="32" height="32" viewBox="0 0 32 32">
<title>ZEC-alt</title>
<path d="M15.997 0c-8.835 0-15.997 7.164-15.997 16.003s7.162 16.003 15.997 16.003c8.835 0 15.997-7.165 15.997-16.003s-7.162-16.003-15.997-16.003zM21.632 12.048c-0.1 0.536-0.703 1.005-1.104 1.474-1.272 1.508-2.543 2.982-3.848 4.489-0.502 0.603-1.004 1.139-1.573 1.742h6.525v3.283h-4.016c0.067 0.938 0.1 1.809 0.167 2.747h-3.38v-2.714h-4.016c0-1.072-0.134-2.144 0.067-3.149 0.1-0.536 0.703-1.005 1.071-1.474 1.272-1.508 2.543-2.982 3.848-4.489 0.502-0.57 1.004-1.105 1.573-1.742h-6.258v-3.283h3.714v-2.747h3.246v2.68h4.049c0 1.105 0.134 2.178-0.067 3.183z"></path>
</svg>
