<!-- Generated by IcoMoon.io -->
<svg version="1.1" xmlns="http://www.w3.org/2000/svg" width="32" height="32" viewBox="0 0 32 32">
<title>ZEC</title>
<path fill="#fff" d="M15.998 31.996c-8.821 0-15.998-7.177-15.998-15.998s7.177-15.998 15.998-15.998c8.821 0 15.998 7.177 15.998 15.998s-7.177 15.998-15.998 15.998zM15.998 1.561c-7.961 0-14.437 6.477-14.437 14.438s6.477 14.438 14.437 14.438c7.961 0 14.437-6.477 14.437-14.438s-6.476-14.438-14.437-14.438z"></path>
<path fill="#fff" d="M14.971 20.259h7.419v3.728h-4.565c0.076 1.065 0.114 2.055 0.19 3.12h-3.843v-3.082h-4.565c0-1.218-0.152-2.435 0.076-3.576 0.114-0.609 0.799-1.142 1.218-1.674 1.446-1.712 2.891-3.386 4.375-5.098 0.571-0.647 1.141-1.255 1.788-1.978h-7.114v-3.728h4.223v-3.12h3.69v3.044h4.604c0 1.255 0.152 2.473-0.076 3.614-0.114 0.609-0.799 1.141-1.256 1.674-1.445 1.712-2.891 3.386-4.375 5.098-0.571 0.685-1.141 1.293-1.788 1.978z"></path>
</svg>
